<svg id="svg" version="1.1" xmlns="http://www.w3.org/2000/svg" xmlns:xlink="http://www.w3.org/1999/xlink" width="64" height="64" viewBox="0, 0, 400,400"><g id="svgg"><path id="path0" d="M160.600 72.693 C 159.500 73.018,158.240 73.426,157.800 73.600 C 157.360 73.773,156.100 74.221,155.000 74.595 C 153.900 74.969,152.433 75.528,151.740 75.838 C 151.046 76.147,150.377 76.400,150.251 76.400 C 149.106 76.400,135.577 83.231,130.600 86.322 C 126.368 88.951,118.167 94.644,116.966 95.787 C 116.727 96.014,115.746 96.830,114.785 97.600 C 109.758 101.630,101.630 109.758,97.600 114.785 C 96.830 115.746,96.014 116.727,95.787 116.966 C 94.644 118.167,88.951 126.368,86.322 130.600 C 83.231 135.577,76.400 149.106,76.400 150.251 C 76.400 150.377,76.147 151.046,75.838 151.740 C 75.528 152.433,74.969 153.900,74.595 155.000 C 74.221 156.100,73.772 157.360,73.598 157.800 C 73.315 158.512,72.658 160.738,71.560 164.700 C 71.362 165.415,71.012 166.619,70.783 167.375 C 70.554 168.132,70.177 169.797,69.946 171.075 C 69.715 172.354,69.370 174.210,69.178 175.200 C 68.987 176.190,68.640 178.350,68.407 180.000 C 68.173 181.650,67.776 184.260,67.524 185.800 C 66.893 189.658,66.909 210.048,67.546 214.400 C 68.732 222.494,70.167 230.607,70.750 232.509 C 70.968 233.219,71.359 234.610,71.620 235.600 C 72.646 239.499,74.755 245.828,75.839 248.260 C 76.147 248.954,76.400 249.623,76.400 249.749 C 76.400 250.657,82.977 263.971,85.515 268.200 C 94.332 282.891,107.192 297.221,119.800 306.402 C 121.120 307.363,122.260 308.296,122.333 308.475 C 122.407 308.654,122.634 308.800,122.839 308.800 C 123.044 308.800,124.424 309.655,125.906 310.700 C 128.977 312.866,129.950 313.496,130.800 313.868 C 131.130 314.012,131.908 314.482,132.529 314.913 C 134.256 316.110,145.022 321.502,148.400 322.862 C 150.050 323.526,151.760 324.219,152.200 324.403 C 154.527 325.372,161.038 327.495,164.400 328.380 C 165.390 328.641,166.830 329.054,167.600 329.298 C 169.233 329.815,171.594 330.289,175.116 330.804 C 176.500 331.007,177.824 331.291,178.058 331.436 C 178.696 331.830,184.513 332.380,192.751 332.825 C 206.126 333.548,220.097 332.370,230.800 329.618 C 233.918 328.816,235.553 328.411,237.100 328.056 C 237.925 327.867,239.050 327.530,239.600 327.307 C 240.150 327.084,241.320 326.688,242.200 326.427 C 244.019 325.886,245.167 325.450,251.772 322.793 C 253.516 322.091,255.226 321.371,255.572 321.192 C 255.917 321.013,256.830 320.577,257.600 320.223 C 258.370 319.868,259.270 319.418,259.600 319.222 C 259.930 319.027,260.830 318.574,261.600 318.216 C 262.370 317.859,263.540 317.244,264.200 316.849 C 264.860 316.455,266.300 315.634,267.400 315.025 C 268.500 314.416,270.456 313.216,271.746 312.359 C 273.036 311.501,274.236 310.800,274.412 310.800 C 274.589 310.800,274.793 310.647,274.867 310.461 C 274.940 310.274,275.652 309.689,276.449 309.161 C 287.360 301.925,301.925 287.360,309.161 276.449 C 309.689 275.652,310.274 274.940,310.461 274.867 C 310.647 274.793,310.800 274.589,310.800 274.412 C 310.800 274.236,311.501 273.036,312.359 271.746 C 313.216 270.456,314.416 268.500,315.025 267.400 C 315.634 266.300,316.461 264.860,316.861 264.200 C 317.543 263.078,317.772 262.617,318.799 260.300 C 319.019 259.805,319.372 259.130,319.585 258.800 C 320.327 257.649,322.456 252.763,324.379 247.800 C 324.550 247.360,324.984 246.319,325.345 245.486 C 325.705 244.654,326.000 243.707,326.000 243.381 C 326.000 243.055,326.156 242.477,326.346 242.095 C 327.144 240.494,327.807 238.256,328.752 233.969 C 328.925 233.182,329.196 232.330,329.354 232.075 C 329.511 231.820,329.809 230.664,330.016 229.506 C 330.222 228.348,330.677 225.960,331.027 224.200 C 333.527 211.631,333.624 187.947,331.222 176.800 C 330.961 175.590,330.570 173.610,330.353 172.400 C 330.135 171.190,329.712 169.300,329.412 168.200 C 329.112 167.100,328.650 165.390,328.386 164.400 C 327.628 161.557,326.730 158.655,326.403 157.987 C 326.237 157.650,325.975 156.797,325.820 156.091 C 325.665 155.386,325.372 154.706,325.169 154.581 C 324.966 154.455,324.800 154.037,324.800 153.651 C 324.800 153.265,324.350 152.017,323.800 150.877 C 323.250 149.737,322.800 148.640,322.800 148.439 C 322.800 148.238,322.375 147.202,321.855 146.137 C 321.335 145.072,319.947 142.220,318.770 139.800 C 317.594 137.380,316.489 135.340,316.316 135.267 C 316.142 135.193,316.000 134.966,316.000 134.762 C 316.000 133.864,307.847 121.403,306.125 119.671 C 305.836 119.381,305.600 119.021,305.600 118.871 C 305.599 118.722,305.129 118.060,304.555 117.400 C 303.982 116.740,302.857 115.398,302.056 114.417 C 298.316 109.836,292.615 104.091,287.003 99.249 C 284.805 97.352,282.656 95.485,282.228 95.100 C 281.800 94.715,281.316 94.400,281.153 94.400 C 280.990 94.400,280.619 94.169,280.329 93.887 C 276.049 89.736,255.717 78.188,249.200 76.206 C 248.650 76.039,248.020 75.760,247.800 75.587 C 246.261 74.374,244.453 74.709,244.173 76.260 C 244.021 77.107,243.762 77.980,243.598 78.200 C 243.434 78.420,243.205 79.140,243.088 79.800 C 242.972 80.460,242.575 81.990,242.206 83.200 C 241.838 84.410,241.385 86.030,241.200 86.800 C 241.015 87.570,240.571 89.190,240.213 90.400 C 239.528 92.714,238.558 96.113,237.957 98.300 C 237.761 99.015,237.431 100.185,237.224 100.900 C 237.017 101.615,236.642 103.010,236.390 104.000 C 236.138 104.990,235.781 106.160,235.596 106.600 C 235.411 107.040,235.172 107.850,235.063 108.400 C 234.955 108.950,234.573 110.390,234.215 111.600 C 233.856 112.810,233.110 115.420,232.557 117.400 C 232.003 119.380,231.389 121.540,231.193 122.200 C 230.996 122.860,230.546 124.480,230.192 125.800 C 229.463 128.518,229.134 129.672,228.196 132.800 C 227.833 134.010,227.391 135.630,227.212 136.400 C 226.661 138.781,225.925 140.516,224.536 142.708 C 223.801 143.867,223.200 144.879,223.200 144.957 C 223.200 145.035,222.030 147.124,220.600 149.600 C 219.170 152.076,218.000 154.165,218.000 154.243 C 218.000 154.321,217.370 155.369,216.600 156.573 C 215.830 157.777,215.200 158.864,215.200 158.989 C 215.200 159.114,214.778 159.887,214.263 160.708 C 213.748 161.529,212.728 163.280,211.998 164.600 C 210.338 167.599,209.921 168.325,206.600 174.000 C 203.279 179.675,202.862 180.401,201.202 183.400 C 200.472 184.720,199.452 186.471,198.937 187.292 C 198.422 188.113,198.000 188.874,198.000 188.984 C 198.000 189.094,197.370 190.169,196.600 191.373 C 195.830 192.577,195.200 193.637,195.200 193.730 C 195.200 193.823,194.030 195.924,192.600 198.400 C 191.170 200.876,190.000 202.965,190.000 203.043 C 190.000 203.121,189.401 204.133,188.668 205.292 C 187.935 206.452,187.214 207.670,187.064 208.000 C 186.915 208.330,186.464 209.140,186.062 209.800 C 185.660 210.460,184.733 212.080,184.000 213.400 C 181.606 217.717,181.254 218.329,180.285 219.874 C 179.411 221.265,178.569 222.750,175.677 228.000 C 175.132 228.990,174.382 230.250,174.012 230.800 C 173.641 231.350,172.636 233.060,171.779 234.600 C 170.922 236.140,169.895 237.940,169.496 238.600 C 169.098 239.260,168.559 240.295,168.299 240.900 C 168.038 241.505,167.684 242.000,167.512 242.000 C 167.341 242.000,167.200 242.255,167.200 242.566 C 167.200 242.877,165.937 245.172,164.394 247.666 C 162.850 250.160,161.468 252.470,161.322 252.800 C 161.176 253.130,159.739 255.514,158.128 258.097 C 156.518 260.680,155.200 262.867,155.200 262.957 C 155.200 263.046,153.551 265.792,151.537 269.059 C 149.522 272.326,147.421 275.809,146.869 276.799 C 143.393 283.032,140.702 285.978,141.403 282.784 C 141.550 282.115,141.837 278.110,142.040 273.884 C 142.903 255.907,143.158 251.608,143.564 248.200 C 143.800 246.220,143.995 242.791,143.997 240.580 C 143.999 237.900,144.167 236.394,144.500 236.062 C 145.135 235.429,145.908 227.223,146.221 217.800 C 146.353 213.840,146.575 210.330,146.715 210.000 C 147.069 209.167,147.977 194.918,148.244 186.001 C 148.366 181.932,148.630 178.405,148.830 178.164 C 149.030 177.923,149.314 174.271,149.460 170.047 C 149.607 165.824,149.879 162.275,150.064 162.161 C 150.249 162.046,150.400 158.489,150.400 154.256 C 150.400 148.632,150.535 146.425,150.900 146.060 C 151.254 145.707,151.440 143.372,151.538 138.080 C 151.614 133.942,151.853 130.384,152.073 130.117 C 152.312 129.826,152.438 126.493,152.389 121.717 C 152.323 115.220,152.433 113.370,153.003 111.400 C 153.384 110.080,153.778 108.550,153.878 108.000 C 153.978 107.450,154.203 106.640,154.377 106.200 C 154.691 105.406,155.332 103.092,155.984 100.400 C 156.170 99.630,156.632 97.920,157.010 96.600 C 157.387 95.280,157.778 93.750,157.878 93.200 C 157.978 92.650,158.203 91.840,158.377 91.400 C 158.691 90.606,159.332 88.292,159.984 85.600 C 160.170 84.830,160.632 83.120,161.010 81.800 C 161.387 80.480,161.778 78.950,161.878 78.400 C 161.978 77.850,162.203 77.040,162.377 76.600 C 163.953 72.617,163.587 71.811,160.600 72.693 " stroke="none" fill="#f8f5f3" fill-rule="evenodd"></path><path id="path1" d="M0.000 200.000 L 0.000 400.000 200.000 400.000 L 400.000 400.000 400.000 200.000 L 400.000 0.000 200.000 0.000 L 0.000 0.000 0.000 200.000 M191.854 67.396 C 191.970 67.699,191.612 69.444,191.059 71.274 C 190.505 73.103,189.585 76.220,189.013 78.200 C 188.442 80.180,187.731 82.610,187.434 83.600 C 187.137 84.590,186.672 86.210,186.400 87.200 C 186.129 88.190,185.762 89.450,185.586 90.000 C 185.409 90.550,184.961 92.080,184.591 93.400 C 184.221 94.720,183.762 96.250,183.572 96.800 C 183.382 97.350,182.840 99.240,182.368 101.000 C 181.895 102.760,181.244 105.100,180.920 106.200 C 180.596 107.300,180.179 108.740,179.994 109.400 C 179.808 110.060,179.361 111.590,179.000 112.800 C 178.639 114.010,178.198 115.540,178.018 116.200 C 177.839 116.860,177.579 117.671,177.440 118.003 C 177.189 118.606,179.658 120.000,180.979 120.000 C 181.295 120.000,181.664 120.180,181.800 120.400 C 181.936 120.620,182.414 120.800,182.862 120.800 C 183.310 120.800,184.154 121.052,184.738 121.361 C 185.322 121.670,186.700 122.202,187.800 122.543 C 188.900 122.884,191.330 123.724,193.200 124.409 C 195.070 125.094,196.960 125.747,197.400 125.860 C 198.388 126.115,199.848 126.699,201.314 127.426 C 202.459 127.994,203.200 127.197,203.200 125.398 C 203.200 125.095,203.380 124.736,203.600 124.600 C 203.820 124.464,204.004 123.958,204.008 123.476 C 204.013 122.994,204.462 121.340,205.007 119.800 C 205.551 118.260,205.997 116.683,205.998 116.295 C 205.999 115.907,206.167 115.277,206.371 114.895 C 206.724 114.234,206.997 113.352,208.568 107.800 C 208.941 106.480,209.416 105.087,209.623 104.705 C 209.831 104.323,210.004 103.693,210.008 103.305 C 210.013 102.917,210.462 101.340,211.007 99.800 C 211.551 98.260,211.997 96.683,211.998 96.295 C 211.999 95.907,212.169 95.277,212.377 94.895 C 212.584 94.513,213.059 93.120,213.432 91.800 C 215.003 86.248,215.276 85.366,215.629 84.705 C 215.833 84.323,216.004 83.693,216.008 83.305 C 216.013 82.917,216.462 81.340,217.007 79.800 C 217.551 78.260,217.997 76.683,217.998 76.295 C 217.999 75.907,218.169 75.277,218.377 74.895 C 218.584 74.513,219.052 73.120,219.418 71.800 C 219.784 70.480,220.149 69.175,220.229 68.900 C 220.422 68.238,221.552 68.269,225.400 69.046 C 227.160 69.401,229.320 69.835,230.200 70.010 C 231.080 70.186,232.790 70.624,234.000 70.984 C 235.210 71.344,237.179 71.906,238.375 72.234 C 239.571 72.561,241.286 73.154,242.185 73.552 C 243.416 74.097,243.988 74.169,244.504 73.843 C 245.015 73.520,245.517 73.573,246.494 74.050 C 247.212 74.401,248.340 74.910,249.000 75.181 C 249.660 75.452,250.710 75.927,251.332 76.237 C 251.955 76.547,252.810 76.800,253.232 76.800 C 253.655 76.800,254.000 76.980,254.000 77.200 C 254.000 77.420,254.347 77.600,254.771 77.600 C 255.196 77.600,255.813 77.870,256.143 78.200 C 256.473 78.530,256.875 78.800,257.037 78.800 C 257.654 78.800,260.400 80.169,260.400 80.477 C 260.400 80.655,260.642 80.800,260.939 80.800 C 261.626 80.800,263.912 81.933,264.216 82.425 C 264.343 82.631,264.797 82.800,265.224 82.800 C 265.651 82.800,266.000 82.960,266.000 83.157 C 266.000 83.353,266.450 83.626,267.000 83.764 C 267.550 83.902,268.000 84.192,268.000 84.408 C 268.000 84.623,268.270 84.800,268.600 84.800 C 268.930 84.800,269.200 84.960,269.200 85.157 C 269.200 85.353,269.650 85.626,270.200 85.764 C 270.750 85.902,271.200 86.192,271.200 86.408 C 271.200 86.623,271.470 86.800,271.800 86.800 C 272.130 86.800,272.400 86.959,272.400 87.153 C 272.400 87.348,272.715 87.621,273.100 87.760 C 274.152 88.140,275.532 88.997,276.627 89.949 C 277.166 90.417,277.702 90.800,277.820 90.800 C 278.026 90.800,278.608 91.244,279.785 92.300 C 280.092 92.575,280.470 92.800,280.626 92.800 C 280.781 92.800,281.325 93.250,281.835 93.800 C 282.345 94.350,282.868 94.800,282.998 94.800 C 283.128 94.800,283.451 94.983,283.717 95.207 C 283.983 95.431,284.650 95.983,285.200 96.433 C 290.009 100.368,295.851 106.003,300.095 110.800 C 303.950 115.158,304.400 115.696,304.403 115.961 C 304.405 116.093,305.006 116.831,305.737 117.603 C 306.469 118.375,307.574 119.815,308.194 120.803 C 308.813 121.791,309.428 122.690,309.560 122.800 C 310.070 123.225,312.400 126.844,312.400 127.212 C 312.400 127.425,312.580 127.600,312.800 127.600 C 313.020 127.600,313.200 127.870,313.200 128.200 C 313.200 128.530,313.368 128.800,313.573 128.800 C 313.778 128.800,314.070 129.191,314.222 129.669 C 314.374 130.147,314.843 130.909,315.264 131.361 C 315.686 131.814,316.134 132.593,316.259 133.092 C 316.384 133.591,316.647 134.000,316.843 134.000 C 317.040 134.000,317.200 134.349,317.200 134.776 C 317.200 135.203,317.367 135.656,317.572 135.783 C 318.038 136.071,322.400 144.867,322.400 145.519 C 322.400 145.784,322.580 146.000,322.800 146.000 C 323.020 146.000,323.200 146.326,323.200 146.724 C 323.200 147.121,323.464 147.796,323.787 148.224 C 324.110 148.651,324.380 149.317,324.387 149.705 C 324.394 150.093,324.560 150.723,324.756 151.105 C 326.029 153.593,327.975 159.103,328.286 161.104 C 328.397 161.821,328.649 162.506,328.844 162.627 C 329.040 162.748,329.206 163.332,329.214 163.924 C 329.222 164.516,329.486 165.450,329.800 166.000 C 330.114 166.550,330.378 167.664,330.386 168.476 C 330.394 169.288,330.580 170.064,330.800 170.200 C 331.020 170.336,331.200 171.145,331.200 171.998 C 331.200 172.850,331.411 174.055,331.668 174.674 C 332.147 175.826,332.530 178.488,333.180 185.200 C 333.383 187.290,333.737 190.710,333.967 192.800 C 334.540 197.998,334.484 203.295,333.796 209.000 C 333.477 211.640,333.213 214.914,333.208 216.276 C 333.204 217.638,333.020 218.864,332.800 219.000 C 332.580 219.136,332.400 220.205,332.400 221.375 C 332.400 222.545,332.130 224.149,331.800 224.938 C 331.470 225.728,331.200 227.089,331.200 227.964 C 331.200 228.838,331.020 229.664,330.800 229.800 C 330.580 229.936,330.394 230.712,330.386 231.524 C 330.378 232.336,330.114 233.450,329.800 234.000 C 329.486 234.550,329.222 235.484,329.214 236.076 C 329.206 236.668,329.040 237.252,328.844 237.373 C 328.649 237.494,328.401 238.179,328.294 238.896 C 328.099 240.206,327.391 242.402,326.746 243.695 C 326.556 244.077,326.400 244.662,326.400 244.997 C 326.400 245.331,325.950 246.537,325.400 247.677 C 324.850 248.817,324.394 250.031,324.387 250.375 C 324.380 250.719,324.110 251.349,323.787 251.776 C 323.464 252.204,323.200 252.879,323.200 253.276 C 323.200 253.674,323.020 254.000,322.800 254.000 C 322.580 254.000,322.398 254.315,322.395 254.700 C 322.393 255.085,321.943 256.183,321.395 257.141 C 320.848 258.098,320.400 259.047,320.400 259.249 C 320.400 259.451,319.950 260.329,319.400 261.200 C 318.850 262.071,318.400 263.063,318.400 263.405 C 318.400 263.746,318.130 264.129,317.800 264.255 C 317.470 264.382,317.200 264.826,317.200 265.243 C 317.200 265.659,317.059 266.000,316.888 266.000 C 316.716 266.000,316.362 266.495,316.101 267.100 C 315.404 268.718,314.143 270.801,313.215 271.869 C 312.767 272.384,312.400 273.066,312.400 273.383 C 312.400 273.701,312.175 274.104,311.899 274.280 C 311.624 274.456,311.167 275.050,310.884 275.600 C 310.601 276.150,309.836 277.209,309.184 277.954 C 308.533 278.699,308.000 279.430,308.000 279.579 C 308.000 279.727,307.684 280.198,307.298 280.625 C 306.911 281.051,305.613 282.660,304.412 284.200 C 299.617 290.352,290.352 299.617,284.200 304.412 C 282.660 305.613,281.051 306.911,280.625 307.298 C 280.198 307.684,279.727 308.000,279.579 308.000 C 279.430 308.000,278.699 308.533,277.954 309.184 C 277.209 309.836,276.150 310.601,275.600 310.884 C 275.050 311.167,274.456 311.624,274.280 311.899 C 274.104 312.175,273.701 312.400,273.383 312.400 C 273.066 312.400,272.384 312.767,271.869 313.215 C 270.801 314.143,268.718 315.404,267.100 316.101 C 266.495 316.362,266.000 316.716,266.000 316.888 C 266.000 317.059,265.659 317.200,265.243 317.200 C 264.826 317.200,264.382 317.470,264.255 317.800 C 264.129 318.130,263.746 318.400,263.405 318.400 C 263.063 318.400,262.071 318.850,261.200 319.400 C 260.329 319.950,259.451 320.400,259.249 320.400 C 259.047 320.400,258.098 320.848,257.141 321.395 C 256.183 321.943,255.085 322.393,254.700 322.395 C 254.315 322.398,254.000 322.580,254.000 322.800 C 254.000 323.020,253.674 323.200,253.276 323.200 C 252.879 323.200,252.204 323.464,251.776 323.787 C 251.349 324.110,250.719 324.380,250.375 324.387 C 250.031 324.394,248.817 324.850,247.677 325.400 C 246.537 325.950,245.331 326.400,244.997 326.400 C 244.662 326.400,244.077 326.556,243.695 326.746 C 242.402 327.391,240.206 328.099,238.896 328.294 C 238.179 328.401,237.494 328.649,237.373 328.844 C 237.252 329.040,236.668 329.206,236.076 329.214 C 235.484 329.222,234.550 329.486,234.000 329.800 C 233.450 330.114,232.336 330.378,231.524 330.386 C 230.712 330.394,229.936 330.580,229.800 330.800 C 229.664 331.020,228.838 331.200,227.964 331.200 C 227.089 331.200,225.728 331.470,224.938 331.800 C 224.149 332.130,222.545 332.400,221.375 332.400 C 220.205 332.400,219.152 332.554,219.036 332.742 C 218.920 332.930,216.974 333.199,214.712 333.339 C 212.451 333.480,209.160 333.766,207.400 333.976 C 203.105 334.487,197.029 334.480,192.400 333.957 C 190.310 333.721,186.980 333.368,185.000 333.172 C 178.395 332.517,175.809 332.140,174.674 331.668 C 174.055 331.411,172.850 331.200,171.998 331.200 C 171.145 331.200,170.336 331.020,170.200 330.800 C 170.064 330.580,169.288 330.394,168.476 330.386 C 167.664 330.378,166.550 330.114,166.000 329.800 C 165.450 329.486,164.516 329.222,163.924 329.214 C 163.332 329.206,162.748 329.040,162.627 328.844 C 162.506 328.649,161.821 328.397,161.104 328.286 C 159.103 327.975,153.593 326.029,151.105 324.756 C 150.723 324.560,150.093 324.394,149.705 324.387 C 149.317 324.380,148.651 324.110,148.224 323.787 C 147.796 323.464,147.121 323.200,146.724 323.200 C 146.326 323.200,146.000 323.020,146.000 322.800 C 146.000 322.580,145.732 322.400,145.405 322.400 C 144.686 322.400,136.105 318.093,135.781 317.570 C 135.656 317.366,135.203 317.200,134.776 317.200 C 134.349 317.200,134.000 317.040,134.000 316.843 C 134.000 316.647,133.591 316.384,133.092 316.259 C 132.593 316.134,131.790 315.664,131.309 315.215 C 130.827 314.767,130.199 314.400,129.913 314.400 C 129.626 314.400,128.934 313.995,128.375 313.500 C 127.250 312.504,126.480 311.987,124.400 310.828 C 123.630 310.400,122.477 309.588,121.838 309.024 C 121.199 308.461,120.558 308.000,120.413 308.000 C 120.269 308.000,119.802 307.683,119.375 307.296 C 118.949 306.909,117.790 305.967,116.800 305.202 C 114.762 303.627,115.052 303.873,111.140 300.400 C 105.846 295.700,102.862 292.618,96.035 284.800 C 95.363 284.030,94.810 283.256,94.806 283.081 C 94.803 282.905,94.350 282.345,93.800 281.835 C 93.250 281.325,92.800 280.786,92.800 280.637 C 92.800 280.379,92.407 279.849,91.300 278.615 C 91.025 278.308,90.800 277.956,90.800 277.832 C 90.800 277.708,90.417 277.166,89.949 276.627 C 88.997 275.532,88.140 274.152,87.760 273.100 C 87.621 272.715,87.348 272.400,87.153 272.400 C 86.959 272.400,86.800 272.145,86.800 271.833 C 86.800 271.522,86.662 271.207,86.493 271.133 C 86.036 270.935,83.600 267.004,83.600 266.465 C 83.600 266.209,83.420 266.000,83.200 266.000 C 82.980 266.000,82.800 265.640,82.800 265.200 C 82.800 264.760,82.655 264.400,82.477 264.400 C 82.123 264.400,80.800 261.612,80.800 260.866 C 80.800 260.610,80.655 260.400,80.477 260.400 C 80.169 260.400,78.800 257.654,78.800 257.037 C 78.800 256.875,78.530 256.473,78.200 256.143 C 77.870 255.813,77.600 255.196,77.600 254.771 C 77.600 254.347,77.420 254.000,77.200 254.000 C 76.980 254.000,76.800 253.655,76.800 253.232 C 76.800 252.810,76.547 251.955,76.237 251.332 C 75.927 250.710,75.455 249.660,75.188 249.000 C 74.921 248.340,74.454 247.322,74.151 246.738 C 73.848 246.154,73.600 245.310,73.600 244.862 C 73.600 244.414,73.420 243.936,73.200 243.800 C 72.980 243.664,72.794 243.068,72.787 242.476 C 72.780 241.884,72.510 241.051,72.187 240.624 C 71.864 240.196,71.600 239.352,71.600 238.747 C 71.600 238.142,71.420 237.536,71.200 237.400 C 70.980 237.264,70.800 236.644,70.800 236.022 C 70.800 235.400,70.531 234.376,70.202 233.746 C 69.874 233.116,69.604 232.026,69.602 231.324 C 69.601 230.622,69.420 229.936,69.200 229.800 C 68.980 229.664,68.800 228.609,68.800 227.456 C 68.800 226.303,68.597 225.157,68.349 224.909 C 68.100 224.660,67.806 223.184,67.695 221.629 C 67.584 220.073,67.348 218.800,67.171 218.800 C 66.994 218.800,66.765 216.865,66.661 214.500 C 66.557 212.135,66.265 208.580,66.012 206.600 C 65.495 202.558,65.779 190.861,66.409 190.231 C 66.624 190.016,66.800 187.997,66.800 185.744 C 66.800 183.491,66.955 181.551,67.146 181.434 C 67.336 181.316,67.582 179.943,67.694 178.381 C 67.806 176.820,68.100 175.340,68.349 175.091 C 68.597 174.843,68.800 173.697,68.800 172.544 C 68.800 171.391,68.980 170.336,69.200 170.200 C 69.420 170.064,69.601 169.378,69.602 168.676 C 69.604 167.974,69.874 166.884,70.202 166.254 C 70.531 165.624,70.800 164.677,70.800 164.149 C 70.800 163.621,70.956 162.877,71.146 162.495 C 71.709 161.366,72.477 159.082,72.692 157.895 C 72.802 157.287,73.051 156.692,73.246 156.571 C 73.441 156.451,73.600 156.010,73.600 155.590 C 73.600 155.170,73.895 154.146,74.255 153.314 C 74.616 152.481,75.083 151.350,75.292 150.800 C 75.502 150.250,75.927 149.290,76.237 148.668 C 76.547 148.045,76.800 147.190,76.800 146.768 C 76.800 146.345,76.980 146.000,77.200 146.000 C 77.420 146.000,77.600 145.662,77.600 145.249 C 77.600 144.836,77.870 144.274,78.200 144.000 C 78.530 143.726,78.800 143.315,78.800 143.085 C 78.800 142.376,80.136 139.600,80.477 139.600 C 80.655 139.600,80.800 139.358,80.800 139.061 C 80.800 138.374,81.933 136.088,82.425 135.784 C 82.631 135.657,82.800 135.203,82.800 134.776 C 82.800 134.349,82.960 134.000,83.157 134.000 C 83.353 134.000,83.626 133.550,83.764 133.000 C 83.902 132.450,84.192 132.000,84.408 132.000 C 84.623 132.000,84.800 131.730,84.800 131.400 C 84.800 131.070,84.960 130.800,85.157 130.800 C 85.353 130.800,85.626 130.350,85.764 129.800 C 85.902 129.250,86.192 128.800,86.408 128.800 C 86.623 128.800,86.800 128.530,86.800 128.200 C 86.800 127.870,86.980 127.600,87.200 127.600 C 87.420 127.600,87.600 127.425,87.600 127.212 C 87.600 126.753,90.065 123.060,90.500 122.867 C 90.665 122.793,90.800 122.561,90.800 122.350 C 90.800 121.988,91.127 121.523,92.300 120.215 C 92.575 119.908,92.800 119.530,92.800 119.374 C 92.800 119.219,93.250 118.675,93.800 118.165 C 94.350 117.655,94.800 117.132,94.800 117.002 C 94.800 116.872,94.983 116.549,95.207 116.283 C 95.431 116.017,95.983 115.350,96.433 114.800 C 101.344 108.798,108.798 101.344,114.800 96.433 C 115.350 95.983,116.017 95.431,116.283 95.207 C 116.549 94.983,116.872 94.800,117.002 94.800 C 117.132 94.800,117.655 94.350,118.165 93.800 C 118.675 93.250,119.214 92.800,119.363 92.800 C 119.621 92.800,120.151 92.407,121.385 91.300 C 121.692 91.025,122.121 90.800,122.338 90.800 C 122.555 90.800,122.793 90.665,122.867 90.500 C 123.060 90.065,126.753 87.600,127.212 87.600 C 127.425 87.600,127.600 87.420,127.600 87.200 C 127.600 86.980,127.870 86.800,128.200 86.800 C 128.530 86.800,128.800 86.623,128.800 86.408 C 128.800 86.192,129.250 85.902,129.800 85.764 C 130.350 85.626,130.800 85.353,130.800 85.157 C 130.800 84.960,131.070 84.800,131.400 84.800 C 131.730 84.800,132.000 84.623,132.000 84.408 C 132.000 84.192,132.450 83.902,133.000 83.764 C 133.550 83.626,134.000 83.353,134.000 83.157 C 134.000 82.960,134.349 82.800,134.776 82.800 C 135.203 82.800,135.657 82.631,135.784 82.425 C 136.088 81.933,138.374 80.800,139.061 80.800 C 139.358 80.800,139.600 80.655,139.600 80.477 C 139.600 80.136,142.376 78.800,143.085 78.800 C 143.315 78.800,143.726 78.530,144.000 78.200 C 144.274 77.870,144.836 77.600,145.249 77.600 C 145.662 77.600,146.000 77.420,146.000 77.200 C 146.000 76.980,146.345 76.800,146.768 76.800 C 147.190 76.800,148.045 76.547,148.668 76.237 C 149.290 75.927,150.250 75.502,150.800 75.292 C 151.350 75.083,152.481 74.616,153.314 74.255 C 154.146 73.895,155.170 73.600,155.590 73.600 C 156.010 73.600,156.451 73.441,156.571 73.246 C 156.692 73.051,157.287 72.802,157.895 72.692 C 159.105 72.472,161.385 71.702,162.525 71.127 C 162.924 70.926,163.558 70.860,163.934 70.979 C 164.310 71.099,165.244 70.999,166.009 70.757 C 172.509 68.706,191.413 66.248,191.854 67.396 " stroke="none" fill="#f38434" fill-rule="evenodd"></path><path id="path2" d="M145.450 237.650 C 145.313 238.338,145.200 239.587,145.200 240.426 C 145.200 241.266,145.020 242.064,144.800 242.200 C 144.556 242.351,144.400 245.463,144.400 250.200 C 144.400 254.464,144.248 258.047,144.061 258.162 C 143.875 258.277,143.621 261.870,143.497 266.145 C 143.370 270.527,143.081 274.274,142.836 274.733 C 142.596 275.181,142.403 277.224,142.406 279.274 C 142.412 283.178,142.475 283.227,143.863 280.400 C 144.025 280.070,145.202 278.140,146.479 276.111 C 147.756 274.083,148.800 272.316,148.800 272.185 C 148.800 272.054,149.250 271.357,149.800 270.636 C 150.350 269.914,150.800 269.205,150.800 269.059 C 150.800 268.913,152.118 266.680,153.728 264.097 C 155.339 261.514,156.776 259.130,156.922 258.800 C 157.068 258.470,158.450 256.160,159.994 253.666 C 161.537 251.172,162.800 249.045,162.800 248.939 C 162.800 248.833,163.250 248.157,163.800 247.436 C 164.350 246.714,164.800 245.939,164.800 245.711 C 164.800 245.484,165.070 245.074,165.400 244.800 C 166.389 243.979,166.087 242.960,164.500 241.769 C 163.675 241.149,162.910 240.543,162.800 240.421 C 161.405 238.878,156.431 237.546,151.200 237.315 C 149.110 237.223,147.229 236.979,147.020 236.773 C 146.301 236.067,145.699 236.403,145.450 237.650 " stroke="none" fill="#4f4f4e" fill-rule="evenodd"></path><path id="path3" d="M220.229 68.900 C 220.149 69.175,219.784 70.480,219.418 71.800 C 219.052 73.120,218.584 74.513,218.377 74.895 C 218.169 75.277,217.999 75.907,217.998 76.295 C 217.997 76.683,217.551 78.260,217.007 79.800 C 216.462 81.340,216.013 82.917,216.008 83.305 C 216.004 83.693,215.831 84.323,215.623 84.705 C 215.416 85.087,214.941 86.480,214.568 87.800 C 212.997 93.352,212.724 94.234,212.371 94.895 C 212.167 95.277,211.999 95.907,211.998 96.295 C 211.997 96.683,211.551 98.260,211.007 99.800 C 210.462 101.340,210.013 102.917,210.008 103.305 C 210.004 103.693,209.831 104.323,209.623 104.705 C 209.416 105.087,208.941 106.480,208.568 107.800 C 206.997 113.352,206.724 114.234,206.371 114.895 C 206.167 115.277,205.999 115.907,205.998 116.295 C 205.997 116.683,205.551 118.260,205.007 119.800 C 204.462 121.340,204.013 122.975,204.008 123.433 C 204.004 123.892,203.865 124.401,203.700 124.566 C 203.535 124.731,203.213 125.526,202.985 126.333 L 202.570 127.800 205.385 129.241 C 224.511 139.032,226.000 139.665,226.000 138.000 C 226.000 137.586,226.180 137.136,226.400 137.000 C 226.620 136.864,226.800 136.232,226.800 135.595 C 226.800 134.959,226.968 134.024,227.173 133.519 C 227.521 132.662,227.789 131.729,229.423 125.700 C 229.766 124.435,230.216 123.087,230.423 122.705 C 230.631 122.323,230.800 121.479,230.800 120.829 C 230.800 120.179,230.970 119.542,231.177 119.414 C 231.384 119.286,231.675 118.373,231.823 117.386 C 231.971 116.398,232.252 115.492,232.446 115.371 C 232.641 115.251,232.800 114.722,232.800 114.195 C 232.800 113.669,232.968 112.824,233.173 112.319 C 233.378 111.813,233.828 110.365,234.173 109.100 C 234.518 107.835,235.088 105.765,235.440 104.500 C 235.792 103.235,236.229 101.660,236.412 101.000 C 237.638 96.573,238.142 94.915,238.450 94.305 C 238.642 93.923,238.800 93.079,238.800 92.429 C 238.800 91.779,238.970 91.142,239.177 91.014 C 239.384 90.886,239.675 89.973,239.823 88.986 C 239.971 87.998,240.252 87.092,240.446 86.971 C 240.641 86.851,240.800 86.144,240.800 85.400 C 240.800 84.656,240.970 83.942,241.177 83.814 C 241.384 83.686,241.675 82.773,241.823 81.786 C 241.971 80.798,242.252 79.892,242.446 79.771 C 242.641 79.651,242.800 78.969,242.800 78.256 C 242.800 77.543,242.960 76.789,243.155 76.580 C 244.825 74.793,243.576 73.657,238.375 72.234 C 237.179 71.906,235.210 71.344,234.000 70.984 C 232.790 70.624,231.080 70.186,230.200 70.010 C 229.320 69.835,227.160 69.401,225.400 69.046 C 221.552 68.269,220.422 68.238,220.229 68.900 " stroke="none" fill="#c46c2c" fill-rule="evenodd"></path><path id="path4" d="M190.564 125.400 C 190.426 125.950,190.153 126.400,189.957 126.400 C 189.760 126.400,189.600 128.200,189.600 130.400 C 189.600 133.689,189.493 134.400,189.000 134.400 C 188.501 134.400,188.400 135.178,188.400 139.000 C 188.400 141.800,188.243 143.600,188.000 143.600 C 187.760 143.600,187.600 145.200,187.600 147.600 C 187.600 150.889,187.493 151.600,187.000 151.600 C 186.507 151.600,186.400 152.311,186.400 155.600 C 186.400 158.000,186.240 159.600,186.000 159.600 C 185.758 159.600,185.600 161.333,185.600 164.000 C 185.600 167.644,185.497 168.400,185.000 168.400 C 184.548 168.400,184.400 168.886,184.400 170.376 C 184.400 171.463,184.220 172.464,184.000 172.600 C 183.780 172.736,183.600 173.251,183.600 173.744 C 183.600 174.237,183.457 174.811,183.282 175.020 C 183.107 175.229,182.626 176.480,182.211 177.800 C 181.797 179.120,181.310 180.371,181.129 180.580 C 180.948 180.789,180.794 181.329,180.787 181.780 C 180.780 182.231,180.510 182.949,180.187 183.376 C 179.864 183.804,179.600 184.569,179.600 185.076 C 179.600 185.584,179.420 186.000,179.200 186.000 C 178.980 186.000,178.800 186.361,178.800 186.802 C 178.800 187.243,178.350 188.537,177.800 189.677 C 177.250 190.817,176.800 191.965,176.800 192.229 C 176.800 192.493,176.531 193.224,176.202 193.854 C 175.874 194.484,175.604 195.304,175.602 195.676 C 175.601 196.048,175.420 196.464,175.200 196.600 C 174.980 196.736,174.800 197.199,174.800 197.629 C 174.800 198.059,174.629 198.723,174.419 199.105 C 174.210 199.487,173.745 200.520,173.386 201.400 C 173.027 202.280,172.591 203.276,172.417 203.613 C 172.244 203.950,171.975 204.803,171.820 205.509 C 171.665 206.214,171.372 206.894,171.169 207.019 C 170.966 207.145,170.800 207.599,170.800 208.029 C 170.800 208.459,170.629 209.123,170.419 209.505 C 169.815 210.608,168.904 212.848,168.265 214.800 C 167.941 215.790,167.456 217.140,167.188 217.800 C 166.920 218.460,166.564 219.360,166.398 219.800 C 166.232 220.240,165.783 221.410,165.400 222.400 C 165.017 223.390,164.567 224.560,164.400 225.000 C 164.233 225.440,163.783 226.610,163.400 227.600 C 163.017 228.590,162.567 229.760,162.400 230.200 C 162.233 230.640,161.820 231.720,161.482 232.600 C 161.145 233.480,160.601 234.920,160.274 235.800 C 159.630 237.532,159.580 237.546,155.800 237.006 L 154.200 236.777 155.800 237.383 C 156.680 237.716,158.096 237.991,158.946 237.994 C 160.496 238.000,162.969 239.446,165.700 241.944 C 166.601 242.768,166.800 242.828,166.800 242.275 C 166.800 241.904,166.959 241.600,167.153 241.600 C 167.348 241.600,167.616 241.285,167.750 240.900 C 167.883 240.515,168.532 239.300,169.193 238.200 C 169.853 237.100,170.786 235.435,171.267 234.500 C 171.748 233.565,172.290 232.800,172.471 232.800 C 172.652 232.800,172.800 232.533,172.800 232.208 C 172.800 231.882,173.403 230.667,174.140 229.508 C 174.877 228.348,176.077 226.320,176.806 225.000 C 177.535 223.680,178.460 222.060,178.862 221.400 C 179.264 220.740,179.717 219.930,179.867 219.600 C 180.018 219.270,180.245 218.910,180.371 218.800 C 180.497 218.690,180.796 218.240,181.037 217.800 C 182.439 215.230,184.227 212.040,184.849 211.000 C 185.244 210.340,185.882 209.170,186.268 208.400 C 186.654 207.630,187.201 206.762,187.485 206.471 C 187.768 206.181,188.000 205.686,188.000 205.371 C 188.000 205.057,188.159 204.800,188.353 204.800 C 188.548 204.800,188.808 204.485,188.931 204.100 C 189.173 203.348,190.226 201.477,194.244 194.667 C 195.650 192.283,196.800 190.255,196.800 190.159 C 196.800 190.063,197.250 189.271,197.800 188.400 C 198.964 186.557,199.012 186.344,198.200 186.655 C 197.870 186.782,197.600 187.226,197.600 187.643 C 197.600 188.059,197.463 188.400,197.295 188.400 C 196.989 188.400,196.267 189.585,195.771 190.900 C 195.626 191.285,195.348 191.600,195.153 191.600 C 194.959 191.600,194.800 191.857,194.800 192.171 C 194.800 192.486,194.575 192.981,194.299 193.271 C 194.024 193.562,193.443 194.475,193.008 195.300 C 192.574 196.125,192.079 196.800,191.909 196.800 C 191.739 196.800,191.600 197.166,191.600 197.613 C 191.600 198.059,191.330 198.529,191.000 198.655 C 190.670 198.782,190.400 199.226,190.400 199.643 C 190.400 200.059,190.220 200.400,190.000 200.400 C 189.769 200.400,189.600 199.133,189.600 197.400 C 189.600 195.667,189.769 194.400,190.000 194.400 C 190.240 194.400,190.400 192.800,190.400 190.400 C 190.400 187.111,190.507 186.400,191.000 186.400 C 191.497 186.400,191.600 185.644,191.600 182.000 C 191.600 179.333,191.758 177.600,192.000 177.600 C 192.240 177.600,192.400 176.000,192.400 173.600 C 192.400 170.311,192.507 169.600,193.000 169.600 C 193.499 169.600,193.600 168.822,193.600 165.000 C 193.600 162.200,193.757 160.400,194.000 160.400 C 194.240 160.400,194.400 158.800,194.400 156.400 C 194.400 153.111,194.507 152.400,195.000 152.400 C 195.466 152.400,195.600 151.869,195.600 150.024 C 195.600 148.717,195.780 147.536,196.000 147.400 C 196.220 147.264,196.400 146.724,196.400 146.200 C 196.400 145.676,196.563 145.146,196.763 145.023 C 196.963 144.899,197.449 143.764,197.844 142.499 C 198.239 141.235,198.795 139.750,199.079 139.200 C 199.363 138.650,199.596 137.896,199.598 137.524 C 199.599 137.152,199.780 136.736,200.000 136.600 C 200.220 136.464,200.400 135.949,200.400 135.456 C 200.400 134.963,200.555 134.389,200.744 134.180 C 200.933 133.971,201.420 132.810,201.825 131.600 C 202.230 130.390,202.705 129.229,202.881 129.020 C 203.419 128.379,203.239 128.000,202.395 128.000 C 201.952 128.000,201.277 127.838,200.895 127.639 C 200.513 127.440,199.390 127.063,198.400 126.801 C 197.410 126.538,196.009 126.070,195.286 125.762 C 194.564 125.453,193.630 125.200,193.210 125.200 C 192.790 125.200,192.336 125.020,192.200 124.800 C 191.740 124.056,190.817 124.394,190.564 125.400 M225.271 139.635 C 224.981 140.099,224.821 140.555,224.915 140.649 C 225.193 140.926,226.088 139.664,225.937 139.210 C 225.860 138.980,225.560 139.171,225.271 139.635 M223.633 142.633 C 223.157 143.440,222.842 144.176,222.934 144.267 C 223.026 144.359,223.490 143.774,223.967 142.967 C 224.443 142.160,224.758 141.424,224.666 141.333 C 224.574 141.241,224.110 141.826,223.633 142.633 M221.954 145.700 C 221.694 146.195,221.305 146.714,221.091 146.854 C 220.877 146.993,220.774 147.322,220.861 147.583 C 220.948 147.845,221.432 147.326,221.935 146.429 C 222.439 145.533,222.756 144.800,222.640 144.800 C 222.523 144.800,222.215 145.205,221.954 145.700 M219.627 149.562 C 219.172 150.201,218.800 150.834,218.800 150.970 C 218.800 151.105,218.337 151.949,217.771 152.846 C 217.205 153.742,216.823 154.557,216.923 154.656 C 217.091 154.824,217.943 153.486,219.948 149.900 C 220.947 148.113,220.782 147.940,219.627 149.562 M216.142 155.673 C 215.378 156.864,214.796 158.129,214.943 158.277 C 215.030 158.363,215.490 157.774,215.967 156.967 C 216.761 155.620,216.918 154.464,216.142 155.673 M213.764 159.800 C 213.626 160.350,213.353 160.800,213.157 160.800 C 212.960 160.800,212.800 160.984,212.800 161.208 C 212.800 161.432,212.337 162.349,211.771 163.246 C 211.205 164.142,210.823 164.957,210.923 165.056 C 211.091 165.224,211.943 163.886,213.948 160.300 C 214.409 159.475,214.613 158.800,214.401 158.800 C 214.189 158.800,213.902 159.250,213.764 159.800 M210.073 166.087 C 209.813 166.347,209.600 166.713,209.600 166.899 C 209.600 167.086,208.970 168.223,208.200 169.427 C 207.430 170.631,206.800 171.828,206.800 172.088 C 206.800 172.814,207.360 172.063,208.804 169.400 C 209.520 168.080,210.288 166.771,210.510 166.490 C 211.044 165.817,210.680 165.480,210.073 166.087 M205.429 174.061 C 204.700 175.523,204.661 175.733,205.175 175.416 C 205.731 175.072,206.794 172.800,206.399 172.800 C 206.212 172.800,205.775 173.368,205.429 174.061 M204.073 176.487 C 203.813 176.747,203.600 177.179,203.600 177.447 C 203.600 177.714,203.393 178.002,203.140 178.087 C 202.887 178.171,202.762 178.485,202.862 178.786 C 202.974 179.123,203.385 178.753,203.938 177.815 C 204.854 176.263,204.917 175.643,204.073 176.487 M201.867 179.867 C 201.720 180.013,201.600 180.463,201.600 180.867 C 201.600 181.270,201.441 181.600,201.247 181.600 C 201.052 181.600,200.788 181.915,200.658 182.300 C 200.368 183.164,199.519 184.513,199.051 184.854 C 198.859 184.993,198.778 185.335,198.871 185.612 C 199.000 186.000,201.983 181.588,202.733 179.900 C 202.898 179.528,202.231 179.503,201.867 179.867 M152.200 236.400 C 153.311 236.878,154.095 236.878,153.800 236.400 C 153.664 236.180,153.068 236.013,152.476 236.028 C 151.515 236.053,151.486 236.093,152.200 236.400 " stroke="none" fill="#b58e7c" fill-rule="evenodd"></path><path id="path5" d="M181.400 67.899 C 172.128 69.288,168.572 69.948,166.034 70.750 C 165.283 70.988,164.267 71.082,163.778 70.959 C 163.288 70.836,162.767 70.930,162.620 71.168 C 162.473 71.405,161.958 71.606,161.476 71.614 C 160.387 71.632,158.260 72.765,159.276 72.786 C 159.648 72.794,160.049 72.644,160.168 72.453 C 160.286 72.261,161.136 71.984,162.058 71.837 C 164.149 71.503,164.511 71.986,163.761 74.111 C 163.452 74.985,163.200 76.040,163.200 76.456 C 163.200 76.871,163.041 77.523,162.847 77.905 C 162.501 78.586,161.756 81.216,161.346 83.200 C 161.233 83.750,160.986 84.560,160.797 85.000 C 160.609 85.440,160.373 86.340,160.273 87.000 C 160.173 87.660,159.902 88.740,159.670 89.400 C 159.439 90.060,159.049 91.410,158.805 92.400 C 158.560 93.390,158.099 95.034,157.780 96.054 C 157.461 97.073,157.200 98.278,157.200 98.730 C 157.200 99.183,157.039 99.652,156.842 99.774 C 156.645 99.895,156.400 100.671,156.296 101.497 C 156.193 102.324,155.915 103.540,155.679 104.200 C 155.442 104.860,155.047 106.210,154.800 107.200 C 154.247 109.419,153.262 113.034,152.816 114.482 C 152.493 115.532,152.536 115.570,154.342 115.785 C 155.364 115.907,156.968 116.185,157.906 116.403 C 158.844 116.622,160.178 116.800,160.871 116.800 C 161.999 116.800,163.463 117.020,171.624 118.419 C 172.847 118.629,174.408 118.800,175.092 118.800 C 175.776 118.800,176.845 119.056,177.468 119.368 C 178.742 120.007,180.436 120.661,184.800 122.195 C 186.450 122.775,188.391 123.509,189.114 123.825 C 189.836 124.141,190.770 124.400,191.190 124.400 C 191.610 124.400,192.064 124.580,192.200 124.800 C 192.336 125.020,192.790 125.200,193.210 125.200 C 193.630 125.200,194.564 125.453,195.286 125.762 C 196.009 126.070,197.410 126.538,198.400 126.801 C 199.390 127.063,200.533 127.453,200.939 127.667 C 201.345 127.881,201.774 127.960,201.891 127.843 C 202.083 127.651,201.655 127.435,199.000 126.384 C 198.560 126.209,197.840 125.974,197.400 125.860 C 196.960 125.747,195.070 125.094,193.200 124.409 C 191.330 123.724,188.900 122.884,187.800 122.543 C 186.700 122.202,185.322 121.670,184.738 121.361 C 184.154 121.052,183.310 120.800,182.862 120.800 C 182.414 120.800,181.936 120.620,181.800 120.400 C 181.664 120.180,181.295 120.000,180.979 120.000 C 179.658 120.000,177.189 118.606,177.440 118.003 C 177.579 117.671,177.839 116.860,178.018 116.200 C 178.198 115.540,178.639 114.010,179.000 112.800 C 179.361 111.590,179.808 110.060,179.994 109.400 C 180.179 108.740,180.596 107.300,180.920 106.200 C 181.244 105.100,181.895 102.760,182.368 101.000 C 182.840 99.240,183.382 97.350,183.572 96.800 C 183.762 96.250,184.221 94.720,184.591 93.400 C 184.961 92.080,185.409 90.550,185.586 90.000 C 185.762 89.450,186.129 88.190,186.400 87.200 C 186.672 86.210,187.137 84.590,187.434 83.600 C 187.731 82.610,188.442 80.180,189.013 78.200 C 189.585 76.220,190.505 73.103,191.059 71.274 C 192.591 66.211,192.613 66.219,181.400 67.899 M156.600 73.200 C 156.464 73.420,155.958 73.606,155.476 73.614 C 154.387 73.632,152.260 74.765,153.276 74.786 C 153.648 74.794,154.064 74.620,154.200 74.400 C 154.336 74.180,154.842 73.994,155.324 73.987 C 155.806 73.980,156.549 73.710,156.976 73.387 C 157.404 73.064,157.549 72.800,157.300 72.800 C 157.051 72.800,156.736 72.980,156.600 73.200 M244.262 73.900 C 244.160 74.065,244.464 74.216,244.938 74.235 C 245.412 74.254,246.160 74.403,246.600 74.567 C 247.389 74.861,247.389 74.856,246.624 74.233 C 245.806 73.567,244.575 73.393,244.262 73.900 M150.800 75.181 C 150.470 75.364,149.682 75.721,149.048 75.972 C 148.415 76.224,148.013 76.546,148.155 76.688 C 148.297 76.830,148.626 76.734,148.887 76.473 C 149.147 76.213,149.650 76.000,150.004 76.000 C 150.357 76.000,150.996 75.736,151.424 75.413 C 152.250 74.787,151.805 74.622,150.800 75.181 M248.576 75.413 C 249.004 75.736,249.643 76.000,249.996 76.000 C 250.350 76.000,250.853 76.213,251.113 76.473 C 251.374 76.734,251.703 76.830,251.845 76.688 C 251.987 76.546,251.585 76.224,250.952 75.972 C 250.318 75.720,249.487 75.353,249.105 75.157 C 248.031 74.605,247.712 74.759,248.576 75.413 M243.291 76.500 C 242.610 78.384,242.704 78.894,243.426 77.230 C 243.753 76.477,243.966 75.699,243.901 75.502 C 243.835 75.305,243.560 75.754,243.291 76.500 M146.000 77.200 C 146.000 77.420,145.662 77.600,145.249 77.600 C 144.836 77.600,144.266 77.880,143.982 78.222 C 143.521 78.778,143.590 78.790,144.633 78.340 C 146.588 77.496,147.518 76.800,146.689 76.800 C 146.310 76.800,146.000 76.980,146.000 77.200 M253.424 77.387 C 253.851 77.710,254.479 77.980,254.820 77.987 C 255.161 77.994,255.656 78.216,255.920 78.480 C 256.293 78.853,256.400 78.851,256.400 78.470 C 256.400 78.201,255.860 77.872,255.200 77.740 C 254.540 77.608,254.000 77.343,254.000 77.150 C 254.000 76.958,253.696 76.800,253.324 76.800 C 252.734 76.800,252.746 76.875,253.424 77.387 M140.900 79.524 C 140.185 79.865,139.600 80.276,139.600 80.436 C 139.600 80.596,140.320 80.380,141.200 79.954 C 142.080 79.529,142.800 79.096,142.800 78.991 C 142.800 78.707,142.344 78.835,140.900 79.524 M257.200 78.957 C 257.200 79.081,257.920 79.529,258.800 79.954 C 259.680 80.380,260.400 80.581,260.400 80.403 C 260.400 80.224,259.815 79.847,259.100 79.565 C 258.385 79.283,257.665 78.980,257.500 78.893 C 257.335 78.805,257.200 78.834,257.200 78.957 M137.266 81.393 C 135.534 82.347,135.417 82.816,137.115 81.995 C 138.042 81.548,138.800 81.096,138.800 80.991 C 138.800 80.696,138.288 80.830,137.266 81.393 M261.200 80.991 C 261.200 81.096,261.921 81.530,262.802 81.955 C 263.683 82.381,264.309 82.576,264.194 82.390 C 263.839 81.815,261.200 80.582,261.200 80.991 M241.291 83.700 C 240.610 85.584,240.704 86.094,241.426 84.430 C 241.753 83.677,241.966 82.899,241.901 82.702 C 241.835 82.505,241.560 82.954,241.291 83.700 M134.000 83.157 C 134.000 83.353,133.550 83.626,133.000 83.764 C 132.038 84.006,131.578 84.800,132.400 84.800 C 132.620 84.800,132.800 84.620,132.800 84.400 C 132.800 84.180,133.025 83.994,133.300 83.987 C 134.155 83.966,135.506 82.800,134.676 82.800 C 134.304 82.800,134.000 82.960,134.000 83.157 M265.424 83.387 C 265.851 83.710,266.425 83.980,266.700 83.987 C 266.975 83.994,267.200 84.180,267.200 84.400 C 267.200 84.620,267.380 84.800,267.600 84.800 C 268.422 84.800,267.962 84.006,267.000 83.764 C 266.450 83.626,266.000 83.353,266.000 83.157 C 266.000 82.960,265.696 82.800,265.324 82.800 C 264.734 82.800,264.746 82.875,265.424 83.387 M130.800 85.157 C 130.800 85.353,130.350 85.626,129.800 85.764 C 129.250 85.902,128.800 86.178,128.800 86.377 C 128.800 86.576,129.336 86.471,129.992 86.144 C 131.269 85.507,131.917 84.800,131.224 84.800 C 130.991 84.800,130.800 84.960,130.800 85.157 M268.584 85.175 C 268.939 85.748,271.200 86.788,271.200 86.377 C 271.200 86.178,270.750 85.902,270.200 85.764 C 269.650 85.626,269.200 85.353,269.200 85.157 C 269.200 84.960,269.009 84.800,268.776 84.800 C 268.543 84.800,268.457 84.969,268.584 85.175 M127.600 87.200 C 127.600 87.420,127.352 87.600,127.049 87.600 C 126.746 87.600,126.278 87.865,126.009 88.189 C 125.592 88.691,125.702 88.688,126.752 88.164 C 128.063 87.510,128.725 86.800,128.024 86.800 C 127.791 86.800,127.600 86.980,127.600 87.200 M271.784 87.175 C 271.912 87.381,272.570 87.826,273.248 88.164 C 274.298 88.688,274.408 88.691,273.991 88.189 C 273.722 87.865,273.254 87.600,272.951 87.600 C 272.648 87.600,272.400 87.420,272.400 87.200 C 272.400 86.980,272.209 86.800,271.976 86.800 C 271.743 86.800,271.657 86.969,271.784 87.175 M123.901 89.537 C 123.296 89.901,122.801 90.347,122.801 90.527 C 122.800 90.707,123.340 90.470,124.000 90.000 C 125.777 88.734,125.715 88.442,123.901 89.537 M275.784 89.797 C 276.436 90.329,277.046 90.687,277.141 90.592 C 277.371 90.362,275.508 88.826,275.000 88.828 C 274.780 88.828,275.133 89.264,275.784 89.797 M239.512 90.000 C 239.376 90.550,239.150 91.450,239.010 92.000 C 238.852 92.622,238.997 92.479,239.392 91.621 C 239.742 90.862,239.968 89.962,239.894 89.621 C 239.810 89.231,239.668 89.372,239.512 90.000 M121.322 91.374 C 121.060 91.674,120.610 92.002,120.322 92.104 C 120.035 92.207,119.923 92.423,120.074 92.586 C 120.224 92.748,120.853 92.413,121.470 91.840 C 122.087 91.268,122.414 90.807,122.196 90.815 C 121.978 90.824,121.585 91.075,121.322 91.374 M278.584 91.797 C 279.236 92.329,279.866 92.658,279.984 92.528 C 280.103 92.397,279.972 92.209,279.693 92.110 C 279.414 92.010,278.932 91.675,278.621 91.364 C 278.311 91.054,277.909 90.806,277.729 90.814 C 277.548 90.822,277.933 91.264,278.584 91.797 M118.232 93.622 C 117.111 94.752,117.621 94.867,118.792 93.748 C 119.337 93.227,119.607 92.811,119.392 92.824 C 119.176 92.837,118.654 93.196,118.232 93.622 M281.208 93.748 C 281.754 94.269,282.277 94.627,282.371 94.544 C 282.586 94.352,280.942 92.800,280.525 92.800 C 280.356 92.800,280.663 93.227,281.208 93.748 M116.200 95.230 C 115.980 95.445,115.350 95.987,114.800 96.436 C 108.875 101.268,101.345 108.796,96.433 114.800 C 95.983 115.350,95.413 116.037,95.167 116.326 C 94.921 116.616,94.802 116.936,94.904 117.037 C 95.005 117.139,95.604 116.542,96.234 115.711 C 98.143 113.192,99.555 111.669,105.600 105.608 C 110.742 100.453,112.589 98.748,116.400 95.642 C 116.950 95.193,117.220 94.830,117.000 94.833 C 116.780 94.837,116.420 95.016,116.200 95.230 M283.600 95.642 C 287.576 98.882,289.285 100.458,294.600 105.786 C 297.900 109.094,301.680 113.150,302.999 114.800 C 304.319 116.450,305.495 117.890,305.612 118.000 C 305.730 118.110,306.511 119.145,307.347 120.300 C 308.184 121.455,308.945 122.400,309.039 122.400 C 309.390 122.400,307.019 118.955,305.737 117.603 C 305.006 116.831,304.405 116.093,304.403 115.961 C 304.400 115.696,303.950 115.158,300.095 110.800 C 295.851 106.003,290.009 100.368,285.200 96.433 C 284.650 95.983,283.983 95.431,283.717 95.207 C 283.451 94.983,283.091 94.806,282.917 94.813 C 282.743 94.821,283.050 95.193,283.600 95.642 M237.240 97.840 C 236.958 98.621,236.815 99.348,236.923 99.457 C 237.032 99.565,237.336 98.999,237.600 98.200 C 238.225 96.306,237.909 95.990,237.240 97.840 M235.291 104.900 C 234.610 106.784,234.704 107.294,235.426 105.630 C 235.753 104.877,235.966 104.099,235.901 103.902 C 235.835 103.705,235.560 104.154,235.291 104.900 M233.291 112.100 C 232.610 113.984,232.704 114.494,233.426 112.830 C 233.753 112.077,233.966 111.299,233.901 111.102 C 233.835 110.905,233.560 111.354,233.291 112.100 M93.460 118.438 C 93.066 118.899,92.814 119.348,92.902 119.435 C 92.989 119.523,93.451 119.145,93.928 118.597 C 94.405 118.049,94.656 117.600,94.486 117.600 C 94.317 117.600,93.855 117.977,93.460 118.438 M231.067 119.467 C 230.920 119.613,230.811 120.108,230.825 120.567 C 230.849 121.333,230.882 121.323,231.234 120.442 C 231.626 119.463,231.544 118.989,231.067 119.467 M91.800 120.800 C 91.660 121.240,91.378 121.600,91.173 121.600 C 90.968 121.600,90.800 121.823,90.800 122.096 C 90.800 122.369,91.250 122.107,91.800 121.513 C 92.871 120.358,93.020 120.000,92.427 120.000 C 92.222 120.000,91.940 120.360,91.800 120.800 M89.519 124.003 C 88.642 125.543,88.902 125.542,90.000 124.000 C 90.470 123.340,90.707 122.801,90.527 122.803 C 90.347 122.804,89.893 123.344,89.519 124.003 M310.000 124.000 C 311.098 125.542,311.358 125.543,310.481 124.003 C 310.107 123.344,309.653 122.804,309.473 122.803 C 309.293 122.801,309.530 123.340,310.000 124.000 M229.277 126.138 C 229.015 126.864,228.809 127.714,228.819 128.028 C 228.830 128.343,229.112 127.818,229.447 126.861 C 229.782 125.905,229.988 125.055,229.905 124.971 C 229.822 124.888,229.539 125.413,229.277 126.138 M88.080 126.080 C 87.816 126.344,87.600 126.794,87.600 127.080 C 87.600 127.366,87.420 127.600,87.200 127.600 C 86.980 127.600,86.800 127.791,86.800 128.024 C 86.800 128.717,87.507 128.069,88.144 126.792 C 88.800 125.477,88.790 125.370,88.080 126.080 M85.764 129.800 C 85.626 130.350,85.353 130.800,85.157 130.800 C 84.960 130.800,84.800 130.991,84.800 131.224 C 84.800 131.917,85.507 131.269,86.144 129.992 C 86.471 129.336,86.576 128.800,86.377 128.800 C 86.178 128.800,85.902 129.250,85.764 129.800 M313.724 129.706 C 313.986 130.204,314.566 131.149,315.014 131.806 C 315.462 132.463,316.087 133.512,316.402 134.137 C 316.717 134.763,317.048 135.057,317.136 134.791 C 317.225 134.525,317.141 134.193,316.949 134.054 C 316.757 133.914,316.257 133.125,315.837 132.300 C 315.417 131.475,314.942 130.800,314.780 130.800 C 314.619 130.800,314.374 130.350,314.236 129.800 C 314.098 129.250,313.819 128.800,313.616 128.800 C 313.413 128.800,313.462 129.208,313.724 129.706 M227.512 132.400 C 227.376 132.950,227.150 133.850,227.010 134.400 C 226.852 135.022,226.997 134.879,227.392 134.021 C 227.742 133.262,227.968 132.362,227.894 132.021 C 227.810 131.631,227.668 131.772,227.512 132.400 M83.773 132.900 C 83.619 133.395,83.314 133.914,83.097 134.054 C 82.880 134.193,82.782 134.547,82.880 134.839 C 82.983 135.148,83.296 134.831,83.626 134.086 C 83.939 133.379,84.331 132.800,84.498 132.800 C 84.664 132.800,84.800 132.620,84.800 132.400 C 84.800 131.639,84.053 132.003,83.773 132.900 M82.126 136.100 C 81.344 137.315,80.800 138.533,80.965 138.698 C 81.063 138.797,81.500 138.140,81.936 137.239 C 82.696 135.665,82.798 135.055,82.126 136.100 M318.064 137.237 C 318.499 138.139,318.934 138.799,319.030 138.704 C 319.246 138.487,318.072 136.092,317.610 135.806 C 317.424 135.691,317.628 136.335,318.064 137.237 M319.200 139.325 C 319.200 139.724,320.885 142.848,321.025 142.708 C 321.221 142.513,319.677 139.200,319.391 139.200 C 319.286 139.200,319.200 139.256,319.200 139.325 M79.496 141.079 C 78.571 143.121,78.958 143.262,79.936 141.239 C 80.371 140.337,80.601 139.600,80.447 139.600 C 80.293 139.600,79.865 140.266,79.496 141.079 M321.200 143.312 C 321.200 143.457,321.660 144.617,322.223 145.888 C 322.785 147.160,323.391 148.560,323.568 149.000 C 324.539 151.408,325.152 152.523,325.174 151.924 C 325.188 151.552,325.020 151.136,324.800 151.000 C 324.580 150.864,324.394 150.358,324.387 149.876 C 324.380 149.394,324.110 148.651,323.787 148.224 C 323.464 147.796,323.200 147.121,323.200 146.724 C 323.200 146.326,323.020 146.000,322.800 146.000 C 322.580 146.000,322.394 145.685,322.387 145.300 C 322.376 144.664,321.200 142.695,321.200 143.312 M78.080 144.080 C 77.816 144.344,77.600 144.884,77.600 145.280 C 77.600 145.676,77.420 146.000,77.200 146.000 C 76.980 146.000,76.800 146.310,76.800 146.689 C 76.800 147.508,77.496 146.591,78.310 144.700 C 78.833 143.483,78.791 143.369,78.080 144.080 M75.972 149.048 C 75.720 149.682,75.341 150.533,75.129 150.939 C 74.918 151.345,74.840 151.774,74.957 151.891 C 75.074 152.008,75.376 151.585,75.628 150.952 C 75.880 150.318,76.259 149.467,76.471 149.061 C 76.682 148.655,76.760 148.226,76.643 148.109 C 76.526 147.992,76.224 148.415,75.972 149.048 M74.085 153.773 C 73.818 154.359,73.600 155.179,73.600 155.595 C 73.600 156.012,73.420 156.464,73.200 156.600 C 72.980 156.736,72.800 157.051,72.800 157.300 C 72.800 157.549,73.064 157.404,73.387 156.976 C 73.710 156.549,73.980 155.831,73.987 155.380 C 73.994 154.929,74.200 154.360,74.445 154.115 C 74.690 153.870,74.818 153.454,74.730 153.190 C 74.642 152.925,74.352 153.188,74.085 153.773 M325.404 153.400 C 325.552 153.840,325.963 155.082,326.317 156.160 C 326.671 157.238,327.026 157.923,327.106 157.682 C 327.186 157.441,327.060 156.886,326.826 156.448 C 326.592 156.011,326.400 155.315,326.400 154.903 C 326.400 154.490,326.115 153.804,325.767 153.376 C 325.144 152.611,325.138 152.611,325.404 153.400 M327.220 158.600 C 327.216 158.820,327.471 159.720,327.788 160.600 C 328.245 161.868,328.366 161.993,328.368 161.200 C 328.370 160.650,328.114 159.750,327.800 159.200 C 327.486 158.650,327.225 158.380,327.220 158.600 M72.065 159.817 C 71.809 160.378,71.600 161.153,71.600 161.539 C 71.600 161.924,71.403 162.437,71.162 162.678 C 70.922 162.918,70.789 163.447,70.867 163.853 C 70.956 164.313,71.213 163.915,71.550 162.795 C 71.848 161.808,72.281 160.595,72.513 160.101 C 72.745 159.606,72.844 159.110,72.732 158.999 C 72.621 158.888,72.321 159.256,72.065 159.817 M328.428 162.676 C 328.518 163.715,329.144 164.596,329.172 163.724 C 329.187 163.242,329.020 162.736,328.800 162.600 C 328.580 162.464,328.413 162.498,328.428 162.676 M329.410 166.000 C 329.553 166.550,329.813 167.630,329.989 168.400 L 330.308 169.800 330.340 168.400 C 330.357 167.630,330.097 166.550,329.761 166.000 L 329.150 165.000 329.410 166.000 M70.011 166.571 C 69.785 167.165,69.600 168.170,69.600 168.802 C 69.600 169.435,69.420 170.064,69.200 170.200 C 68.980 170.336,68.815 171.022,68.832 171.724 C 68.859 172.785,68.963 172.629,69.451 170.800 C 69.774 169.590,70.226 168.002,70.456 167.270 C 70.964 165.651,70.587 165.057,70.011 166.571 M330.440 170.476 C 330.559 172.046,331.120 173.016,331.160 171.724 C 331.182 171.022,331.020 170.336,330.800 170.200 C 330.580 170.064,330.418 170.188,330.440 170.476 M331.401 175.000 C 331.522 175.660,331.789 177.460,331.996 179.000 C 332.203 180.540,332.550 182.610,332.765 183.600 L 333.158 185.400 332.990 183.400 C 332.628 179.093,332.111 175.755,331.658 174.800 C 331.189 173.813,331.186 173.816,331.401 175.000 M68.174 175.242 C 68.024 175.485,67.844 176.880,67.774 178.342 L 67.647 181.000 67.974 178.600 C 68.154 177.280,68.433 175.885,68.593 175.500 C 68.915 174.729,68.608 174.540,68.174 175.242 M67.092 181.442 C 66.931 181.602,66.820 182.558,66.844 183.567 L 66.888 185.400 67.242 183.600 C 67.618 181.687,67.568 180.965,67.092 181.442 M333.522 191.400 C 333.878 196.524,333.877 203.953,333.520 208.800 C 333.277 212.103,333.296 212.312,333.666 210.400 C 334.212 207.584,334.208 192.488,333.661 189.600 C 333.310 187.745,333.288 188.027,333.522 191.400 M66.205 190.400 C 65.594 191.327,65.696 208.804,66.318 209.800 C 66.734 210.467,66.781 210.100,66.597 207.600 C 66.011 199.633,65.962 196.535,66.399 195.200 C 66.963 193.477,66.802 189.493,66.205 190.400 M66.800 216.733 C 66.800 217.924,66.980 218.800,67.225 218.800 C 67.503 218.800,67.554 218.146,67.373 216.900 C 66.998 214.317,66.800 214.259,66.800 216.733 M332.506 218.000 C 331.771 223.053,331.671 223.689,331.405 225.000 C 331.162 226.198,331.163 226.198,331.781 224.854 C 332.121 224.114,332.400 222.575,332.400 221.434 C 332.400 220.293,332.591 219.169,332.824 218.936 C 333.058 218.702,333.193 217.631,333.124 216.556 C 333.008 214.723,332.969 214.813,332.506 218.000 M67.780 221.737 C 67.854 223.253,68.138 224.680,68.416 224.937 C 68.811 225.301,68.852 225.229,68.610 224.600 C 68.440 224.160,68.154 222.720,67.974 221.400 L 67.647 219.000 67.780 221.737 M68.832 228.276 C 68.815 228.978,68.980 229.664,69.200 229.800 C 69.420 229.936,69.600 230.565,69.600 231.198 C 69.600 232.520,70.313 234.620,70.648 234.285 C 70.772 234.161,70.685 233.461,70.456 232.730 C 70.226 231.998,69.774 230.410,69.451 229.200 C 68.963 227.371,68.859 227.215,68.832 228.276 M330.854 227.600 C 330.819 227.930,330.677 228.650,330.540 229.200 C 330.348 229.972,330.402 230.097,330.777 229.749 C 331.044 229.501,331.185 228.781,331.091 228.149 C 330.997 227.517,330.890 227.270,330.854 227.600 M329.934 231.600 C 329.796 232.370,329.564 233.450,329.419 234.000 C 329.167 234.950,329.186 234.944,329.801 233.879 C 330.157 233.262,330.388 232.182,330.316 231.479 L 330.184 230.200 329.934 231.600 M70.825 236.276 C 70.811 236.758,70.980 237.264,71.200 237.400 C 71.420 237.536,71.600 238.142,71.600 238.747 C 71.600 239.352,71.885 240.196,72.233 240.624 C 72.856 241.389,72.861 241.389,72.587 240.600 C 72.433 240.160,72.169 239.260,71.999 238.600 C 71.426 236.373,70.855 235.243,70.825 236.276 M328.846 235.867 C 328.821 236.124,328.684 236.664,328.541 237.067 C 328.340 237.636,328.394 237.697,328.779 237.342 C 329.052 237.091,329.189 236.551,329.084 236.142 C 328.979 235.734,328.872 235.610,328.846 235.867 M328.054 238.876 C 328.025 239.468,327.820 240.064,327.600 240.200 C 327.380 240.336,327.207 240.752,327.216 241.124 C 327.227 241.576,327.434 241.428,327.841 240.677 C 328.176 240.059,328.373 239.159,328.279 238.677 C 328.136 237.937,328.100 237.968,328.054 238.876 M326.456 243.605 C 326.163 244.592,325.760 245.713,325.561 246.095 C 325.362 246.477,325.206 247.017,325.214 247.295 C 325.237 248.115,326.370 245.877,326.386 244.980 C 326.394 244.529,326.597 243.963,326.838 243.722 C 327.078 243.482,327.211 242.953,327.133 242.547 C 327.045 242.089,326.788 242.490,326.456 243.605 M72.800 242.910 C 72.800 243.263,72.980 243.664,73.200 243.800 C 73.420 243.936,73.600 244.452,73.600 244.947 C 73.600 245.442,73.864 246.196,74.187 246.624 C 74.971 247.659,74.944 247.383,74.016 244.844 C 73.156 242.490,72.800 241.925,72.800 242.910 M74.813 248.105 C 74.806 248.273,74.961 248.723,75.157 249.105 C 75.353 249.487,75.720 250.318,75.972 250.952 C 76.224 251.585,76.546 251.987,76.688 251.845 C 76.830 251.703,76.734 251.374,76.473 251.113 C 76.213 250.853,76.000 250.350,76.000 249.996 C 76.000 249.363,74.837 247.511,74.813 248.105 M323.929 250.200 C 323.798 250.640,323.558 251.360,323.396 251.800 C 323.144 252.486,323.198 252.470,323.779 251.693 C 324.151 251.193,324.391 250.473,324.312 250.093 C 324.187 249.492,324.136 249.506,323.929 250.200 M76.800 253.324 C 76.800 253.696,76.958 254.000,77.150 254.000 C 77.343 254.000,77.608 254.540,77.740 255.200 C 77.872 255.860,78.201 256.400,78.470 256.400 C 78.851 256.400,78.853 256.293,78.480 255.920 C 78.216 255.656,77.994 255.161,77.987 254.820 C 77.968 253.889,76.800 252.417,76.800 253.324 M319.754 259.468 C 318.408 262.181,317.469 264.400,317.666 264.400 C 317.864 264.400,318.123 264.085,318.242 263.700 C 318.465 262.978,318.622 262.641,319.683 260.600 C 321.875 256.381,322.446 255.145,322.330 254.859 C 322.259 254.682,321.099 256.756,319.754 259.468 M78.871 257.400 C 78.971 257.620,79.283 258.385,79.565 259.100 C 79.847 259.815,80.238 260.400,80.432 260.400 C 80.627 260.400,80.410 259.725,79.950 258.900 C 79.157 257.478,78.482 256.539,78.871 257.400 M80.871 261.400 C 80.971 261.620,81.283 262.385,81.565 263.100 C 81.847 263.815,82.238 264.400,82.432 264.400 C 82.627 264.400,82.410 263.725,81.950 262.900 C 81.157 261.478,80.482 260.539,80.871 261.400 M82.800 265.324 C 82.800 265.696,82.980 266.000,83.200 266.000 C 83.420 266.000,83.600 266.198,83.600 266.440 C 83.600 267.016,86.118 271.174,86.476 271.189 C 86.818 271.203,86.095 269.800,84.900 268.133 C 84.405 267.442,83.994 266.724,83.987 266.538 C 83.959 265.784,82.800 264.598,82.800 265.324 M314.302 269.424 C 313.269 271.061,312.524 272.400,312.648 272.400 C 312.950 272.400,314.370 270.679,314.387 270.291 C 314.394 270.122,314.876 269.263,315.459 268.383 C 316.041 267.504,316.442 266.708,316.349 266.616 C 316.257 266.524,315.336 267.787,314.302 269.424 M86.800 271.976 C 86.800 272.209,86.980 272.400,87.200 272.400 C 87.420 272.400,87.600 272.648,87.600 272.951 C 87.600 273.254,87.865 273.722,88.189 273.991 C 88.691 274.408,88.688 274.298,88.164 273.248 C 87.510 271.937,86.800 271.275,86.800 271.976 M311.681 273.618 C 311.372 274.113,311.346 274.400,311.609 274.400 C 311.838 274.400,312.132 274.122,312.262 273.783 C 312.622 272.845,312.233 272.734,311.681 273.618 M88.828 275.000 C 88.826 275.508,90.362 277.371,90.592 277.141 C 90.687 277.046,90.329 276.436,89.797 275.784 C 89.264 275.133,88.828 274.780,88.828 275.000 M306.716 280.519 C 298.295 291.757,289.466 300.366,277.506 309.001 C 276.024 310.070,274.894 311.028,274.995 311.128 C 275.171 311.304,277.634 309.580,278.729 308.514 C 279.019 308.232,279.390 308.000,279.553 308.000 C 279.716 308.000,280.198 307.684,280.625 307.298 C 281.051 306.911,282.660 305.613,284.200 304.412 C 290.352 299.617,299.617 290.352,304.412 284.200 C 305.613 282.660,306.911 281.051,307.298 280.625 C 307.684 280.198,308.000 279.716,308.000 279.553 C 308.000 279.390,308.232 279.019,308.514 278.729 C 309.543 277.672,311.307 275.174,311.142 275.009 C 311.049 274.915,309.057 277.395,306.716 280.519 M90.814 277.729 C 90.806 277.909,91.054 278.311,91.364 278.621 C 91.675 278.932,92.010 279.414,92.110 279.693 C 92.209 279.972,92.397 280.103,92.528 279.984 C 92.658 279.866,92.329 279.236,91.797 278.584 C 91.264 277.933,90.822 277.548,90.814 277.729 M92.800 280.525 C 92.800 280.942,94.352 282.586,94.544 282.371 C 94.627 282.277,94.269 281.754,93.748 281.208 C 93.227 280.663,92.800 280.356,92.800 280.525 M94.814 283.000 C 94.807 283.220,95.723 284.390,96.850 285.600 C 98.704 287.591,98.847 287.495,97.130 285.413 C 96.762 284.966,96.093 284.150,95.644 283.600 C 95.194 283.050,94.821 282.780,94.814 283.000 M100.663 290.100 C 103.488 293.194,107.815 297.448,111.140 300.400 C 115.052 303.873,114.762 303.627,116.800 305.202 C 117.790 305.967,118.949 306.909,119.375 307.296 C 119.802 307.683,120.269 308.000,120.413 308.000 C 120.558 308.000,121.199 308.461,121.838 309.023 C 123.020 310.064,125.200 311.370,125.200 311.038 C 125.200 310.937,123.762 309.841,122.003 308.602 C 120.245 307.363,118.580 306.136,118.303 305.875 C 118.027 305.614,117.170 304.925,116.400 304.345 C 114.791 303.133,114.039 302.489,110.251 299.076 C 107.520 296.616,105.019 294.121,101.252 290.100 C 100.171 288.945,99.164 288.000,99.015 288.000 C 98.867 288.000,99.608 288.945,100.663 290.100 M273.423 311.833 C 272.774 312.307,272.754 312.400,273.300 312.400 C 273.659 312.400,274.071 312.208,274.216 311.973 C 274.640 311.287,274.261 311.220,273.423 311.833 M127.613 312.696 C 127.631 313.150,129.570 314.477,129.997 314.329 C 130.201 314.258,129.745 313.793,128.984 313.296 C 128.223 312.799,127.606 312.529,127.613 312.696 M269.200 314.460 C 267.550 315.526,266.383 316.399,266.607 316.399 C 266.831 316.400,267.677 315.950,268.486 315.400 C 269.295 314.850,270.102 314.394,270.279 314.387 C 270.702 314.369,272.559 312.818,272.357 312.651 C 272.270 312.580,270.850 313.394,269.200 314.460 M130.800 314.710 C 130.800 314.910,131.475 315.417,132.300 315.837 C 133.125 316.257,133.914 316.757,134.054 316.949 C 134.193 317.141,134.525 317.225,134.791 317.136 C 135.057 317.048,134.763 316.717,134.137 316.402 C 133.512 316.087,132.505 315.495,131.900 315.087 C 131.295 314.679,130.800 314.509,130.800 314.710 M135.819 317.631 C 136.098 318.082,144.834 322.460,145.174 322.319 C 145.333 322.254,143.250 321.102,140.546 319.761 C 137.841 318.419,135.714 317.461,135.819 317.631 M259.207 319.879 C 256.460 321.265,254.480 322.398,254.807 322.395 C 255.133 322.393,256.183 321.943,257.141 321.395 C 258.098 320.848,259.047 320.400,259.249 320.400 C 259.451 320.400,260.329 319.950,261.200 319.400 C 262.071 318.850,263.047 318.400,263.368 318.400 C 263.909 318.400,264.659 317.668,264.340 317.452 C 264.263 317.400,261.953 318.492,259.207 319.879 M148.224 323.787 C 148.651 324.110,149.360 324.379,149.800 324.385 C 150.440 324.393,150.371 324.275,149.454 323.798 C 147.984 323.031,147.215 323.024,148.224 323.787 M250.600 323.814 C 249.685 324.233,249.590 324.365,250.200 324.369 C 250.640 324.372,251.349 324.110,251.776 323.787 C 252.729 323.067,252.206 323.079,250.600 323.814 M153.071 325.631 C 153.308 325.868,154.109 326.207,154.851 326.385 C 155.593 326.563,156.560 326.847,157.000 327.018 C 157.440 327.188,157.688 327.202,157.551 327.048 C 157.322 326.791,153.253 325.200,152.826 325.200 C 152.724 325.200,152.834 325.394,153.071 325.631 M246.200 325.600 C 246.064 325.820,245.558 326.006,245.076 326.014 C 243.987 326.032,241.860 327.165,242.876 327.186 C 243.248 327.194,243.664 327.020,243.800 326.800 C 243.936 326.580,244.442 326.394,244.924 326.386 C 246.013 326.368,248.140 325.235,247.124 325.214 C 246.752 325.206,246.336 325.380,246.200 325.600 M159.200 327.800 C 159.750 328.114,160.650 328.370,161.200 328.368 C 161.993 328.366,161.868 328.245,160.600 327.788 C 158.567 327.056,157.908 327.061,159.200 327.800 M240.200 327.600 C 240.064 327.820,239.468 328.025,238.876 328.054 C 237.968 328.100,237.937 328.136,238.677 328.279 C 239.159 328.373,240.059 328.176,240.677 327.841 C 241.428 327.434,241.576 327.227,241.124 327.216 C 240.752 327.207,240.336 327.380,240.200 327.600 M162.600 328.800 C 162.736 329.020,163.242 329.187,163.724 329.172 C 164.569 329.145,164.571 329.131,163.800 328.800 C 162.699 328.327,162.308 328.327,162.600 328.800 M236.200 328.800 C 235.429 329.131,235.431 329.145,236.276 329.172 C 236.758 329.187,237.264 329.020,237.400 328.800 C 237.692 328.327,237.301 328.327,236.200 328.800 M166.000 329.761 C 166.550 330.097,167.630 330.357,168.400 330.340 L 169.800 330.308 168.400 329.989 C 167.630 329.813,166.550 329.553,166.000 329.410 L 165.000 329.150 166.000 329.761 M233.471 329.462 C 233.327 329.606,232.532 329.856,231.704 330.016 L 230.200 330.308 231.600 330.340 C 232.370 330.357,233.450 330.114,234.000 329.800 C 234.658 329.424,234.784 329.224,234.367 329.214 C 234.018 329.206,233.615 329.318,233.471 329.462 M170.200 330.800 C 170.336 331.020,171.022 331.182,171.724 331.160 C 172.943 331.122,172.955 331.106,172.000 330.800 C 170.564 330.340,169.916 330.340,170.200 330.800 M228.000 330.800 C 227.045 331.106,227.057 331.122,228.276 331.160 C 228.978 331.182,229.664 331.020,229.800 330.800 C 230.084 330.340,229.436 330.340,228.000 330.800 M174.800 331.658 C 175.755 332.111,179.093 332.628,183.400 332.990 L 185.400 333.158 183.600 332.765 C 182.610 332.550,180.540 332.203,179.000 331.996 C 177.460 331.789,175.660 331.522,175.000 331.401 C 173.816 331.186,173.813 331.189,174.800 331.658 M224.000 331.600 C 223.670 331.813,222.590 332.002,221.600 332.019 C 220.610 332.035,218.630 332.291,217.200 332.585 L 214.600 333.122 216.676 333.161 C 217.818 333.182,218.864 333.020,219.000 332.800 C 219.136 332.580,220.206 332.400,221.378 332.400 C 222.549 332.400,224.114 332.137,224.854 331.816 C 225.797 331.406,225.960 331.228,225.400 331.222 C 224.960 331.217,224.330 331.387,224.000 331.600 M189.400 333.666 C 191.984 334.223,207.994 334.227,210.600 333.671 C 212.291 333.310,212.014 333.287,208.800 333.522 C 203.915 333.879,196.040 333.877,191.200 333.517 C 187.972 333.277,187.701 333.299,189.400 333.666 " stroke="none" fill="#f4a45c" fill-rule="evenodd"></path><path id="path6" d="M202.869 128.956 C 202.645 129.420,202.148 130.700,201.765 131.800 C 201.382 132.900,200.918 133.971,200.734 134.180 C 200.550 134.389,200.400 134.963,200.400 135.456 C 200.400 135.949,200.220 136.464,200.000 136.600 C 199.780 136.736,199.599 137.152,199.598 137.524 C 199.596 137.896,199.363 138.650,199.079 139.200 C 198.795 139.750,198.239 141.235,197.844 142.499 C 197.449 143.764,196.963 144.899,196.763 145.023 C 196.563 145.146,196.400 145.676,196.400 146.200 C 196.400 146.724,196.220 147.264,196.000 147.400 C 195.780 147.536,195.600 148.717,195.600 150.024 C 195.600 151.869,195.466 152.400,195.000 152.400 C 194.507 152.400,194.400 153.111,194.400 156.400 C 194.400 158.800,194.240 160.400,194.000 160.400 C 193.757 160.400,193.600 162.200,193.600 165.000 C 193.600 168.822,193.499 169.600,193.000 169.600 C 192.507 169.600,192.400 170.311,192.400 173.600 C 192.400 176.000,192.240 177.600,192.000 177.600 C 191.758 177.600,191.600 179.333,191.600 182.000 C 191.600 185.644,191.497 186.400,191.000 186.400 C 190.507 186.400,190.400 187.111,190.400 190.400 C 190.400 192.800,190.240 194.400,190.000 194.400 C 189.769 194.400,189.600 195.667,189.600 197.400 C 189.600 199.133,189.769 200.400,190.000 200.400 C 190.220 200.400,190.400 200.059,190.400 199.643 C 190.400 199.226,190.670 198.782,191.000 198.655 C 191.330 198.529,191.600 198.059,191.600 197.613 C 191.600 197.166,191.739 196.800,191.909 196.800 C 192.079 196.800,192.574 196.125,193.008 195.300 C 193.443 194.475,194.024 193.562,194.299 193.271 C 194.575 192.981,194.800 192.486,194.800 192.171 C 194.800 191.857,194.937 191.600,195.105 191.600 C 195.411 191.600,196.133 190.415,196.629 189.100 C 196.774 188.715,197.052 188.400,197.247 188.400 C 197.441 188.400,197.600 188.059,197.600 187.643 C 197.600 187.226,197.870 186.782,198.200 186.655 C 198.530 186.529,198.800 186.059,198.800 185.613 C 198.800 185.166,198.959 184.800,199.153 184.800 C 199.348 184.800,199.626 184.485,199.771 184.100 C 200.267 182.785,200.989 181.600,201.295 181.600 C 201.463 181.600,201.600 181.234,201.600 180.787 C 201.600 180.341,201.870 179.871,202.200 179.745 C 202.530 179.618,202.800 179.174,202.800 178.757 C 202.800 178.341,202.937 178.000,203.105 178.000 C 203.424 178.000,203.620 177.673,205.110 174.648 C 205.610 173.631,206.195 172.800,206.410 172.800 C 206.624 172.800,206.800 172.533,206.800 172.208 C 206.800 171.882,207.399 170.667,208.132 169.508 C 208.865 168.348,209.587 167.130,209.737 166.800 C 209.888 166.470,210.558 165.300,211.227 164.200 C 211.895 163.100,212.544 161.885,212.668 161.500 C 212.792 161.115,213.052 160.800,213.247 160.800 C 213.441 160.800,213.600 160.543,213.600 160.229 C 213.600 159.914,213.832 159.419,214.115 159.129 C 214.399 158.838,214.946 157.970,215.332 157.200 C 215.718 156.430,216.356 155.260,216.751 154.600 C 217.145 153.940,217.965 152.500,218.573 151.400 C 219.182 150.300,219.932 149.116,220.240 148.769 C 220.548 148.421,220.800 147.836,220.800 147.469 C 220.800 147.101,220.948 146.800,221.129 146.800 C 221.310 146.800,221.852 146.035,222.333 145.100 C 222.814 144.165,223.719 142.500,224.344 141.400 L 225.480 139.400 217.440 135.358 C 213.018 133.135,208.022 130.595,206.338 129.714 C 203.321 128.136,203.269 128.124,202.869 128.956 M145.219 236.964 C 144.800 238.084,144.464 242.407,144.813 242.192 C 144.965 242.098,145.184 240.837,145.300 239.388 C 145.542 236.379,145.733 236.041,146.813 236.715 C 147.281 237.008,148.980 237.186,151.095 237.164 C 155.391 237.120,153.955 236.564,148.866 236.301 C 145.769 236.141,145.509 236.188,145.219 236.964 M155.200 237.600 C 155.530 237.813,156.070 237.988,156.400 237.988 C 156.933 237.988,156.933 237.945,156.400 237.600 C 156.070 237.387,155.530 237.212,155.200 237.212 C 154.667 237.212,154.667 237.255,155.200 237.600 M159.086 238.574 C 160.234 238.852,161.488 239.331,161.874 239.640 C 163.993 241.334,164.645 241.884,165.510 242.714 C 166.309 243.479,166.442 243.513,166.328 242.920 C 166.040 241.425,160.775 238.014,158.800 238.042 L 157.000 238.068 159.086 238.574 M143.901 252.600 C 143.736 254.360,143.433 259.580,143.228 264.200 C 143.022 268.820,142.740 273.230,142.600 274.000 C 142.394 275.142,142.431 275.268,142.802 274.684 C 143.080 274.247,143.336 271.048,143.459 266.484 C 143.570 262.368,143.834 258.639,144.046 258.197 C 144.258 257.755,144.379 255.595,144.316 253.397 L 144.200 249.400 143.901 252.600 M142.120 280.800 C 142.120 282.010,142.195 282.505,142.287 281.900 C 142.378 281.295,142.378 280.305,142.287 279.700 C 142.195 279.095,142.120 279.590,142.120 280.800 " stroke="none" fill="#9f7762" fill-rule="evenodd"></path><path id="path7" d="M161.600 71.888 C 161.050 71.987,160.429 72.232,160.220 72.434 C 160.011 72.635,159.370 72.800,158.796 72.800 C 158.223 72.800,157.404 73.064,156.976 73.387 C 156.115 74.039,156.793 74.220,157.905 73.635 C 159.072 73.023,162.573 72.092,163.039 72.271 C 163.475 72.438,163.129 74.699,162.377 76.600 C 162.203 77.040,161.978 77.850,161.878 78.400 C 161.778 78.950,161.387 80.480,161.010 81.800 C 160.632 83.120,160.170 84.830,159.984 85.600 C 159.332 88.292,158.691 90.606,158.377 91.400 C 158.203 91.840,157.978 92.650,157.878 93.200 C 157.778 93.750,157.387 95.280,157.010 96.600 C 156.632 97.920,156.170 99.630,155.984 100.400 C 155.332 103.092,154.691 105.406,154.377 106.200 C 154.203 106.640,153.978 107.450,153.878 108.000 C 153.778 108.550,153.384 110.080,153.003 111.400 C 152.433 113.370,152.323 115.220,152.389 121.717 C 152.438 126.493,152.312 129.826,152.073 130.117 C 151.853 130.384,151.614 133.942,151.538 138.080 C 151.440 143.372,151.254 145.707,150.900 146.060 C 150.535 146.425,150.400 148.632,150.400 154.256 C 150.400 158.489,150.249 162.046,150.064 162.161 C 149.879 162.275,149.607 165.824,149.460 170.047 C 149.314 174.271,149.030 177.923,148.830 178.164 C 148.630 178.405,148.366 181.932,148.244 186.001 C 147.945 195.963,147.070 209.470,146.700 209.836 C 146.535 210.000,146.400 212.375,146.400 215.116 C 146.400 217.856,146.137 222.911,145.816 226.349 C 145.495 229.787,145.179 233.328,145.113 234.217 L 144.995 235.834 149.189 235.944 C 151.496 236.005,153.567 236.201,153.792 236.380 C 154.211 236.714,156.523 237.171,158.540 237.317 C 159.532 237.389,159.756 237.193,160.274 235.800 C 160.601 234.920,161.145 233.480,161.482 232.600 C 161.820 231.720,162.233 230.640,162.400 230.200 C 162.567 229.760,163.017 228.590,163.400 227.600 C 163.783 226.610,164.233 225.440,164.400 225.000 C 164.567 224.560,165.017 223.390,165.400 222.400 C 165.783 221.410,166.232 220.240,166.398 219.800 C 166.564 219.360,166.920 218.460,167.188 217.800 C 167.456 217.140,167.941 215.790,168.265 214.800 C 168.904 212.848,169.815 210.608,170.419 209.505 C 170.629 209.123,170.800 208.459,170.800 208.029 C 170.800 207.599,170.966 207.145,171.169 207.019 C 171.372 206.894,171.665 206.214,171.820 205.509 C 171.975 204.803,172.244 203.950,172.417 203.613 C 172.591 203.276,173.027 202.280,173.386 201.400 C 173.745 200.520,174.210 199.487,174.419 199.105 C 174.629 198.723,174.800 198.059,174.800 197.629 C 174.800 197.199,174.980 196.736,175.200 196.600 C 175.420 196.464,175.601 196.048,175.602 195.676 C 175.604 195.304,175.874 194.484,176.202 193.854 C 176.531 193.224,176.800 192.493,176.800 192.229 C 176.800 191.965,177.250 190.817,177.800 189.677 C 178.350 188.537,178.800 187.243,178.800 186.802 C 178.800 186.361,178.980 186.000,179.200 186.000 C 179.420 186.000,179.600 185.584,179.600 185.076 C 179.600 184.569,179.864 183.804,180.187 183.376 C 180.510 182.949,180.780 182.231,180.787 181.780 C 180.794 181.329,180.948 180.789,181.129 180.580 C 181.310 180.371,181.797 179.120,182.211 177.800 C 182.626 176.480,183.107 175.229,183.282 175.020 C 183.457 174.811,183.600 174.237,183.600 173.744 C 183.600 173.251,183.780 172.736,184.000 172.600 C 184.220 172.464,184.400 171.463,184.400 170.376 C 184.400 168.886,184.548 168.400,185.000 168.400 C 185.497 168.400,185.600 167.644,185.600 164.000 C 185.600 161.333,185.758 159.600,186.000 159.600 C 186.240 159.600,186.400 158.000,186.400 155.600 C 186.400 152.311,186.507 151.600,187.000 151.600 C 187.493 151.600,187.600 150.889,187.600 147.600 C 187.600 145.200,187.760 143.600,188.000 143.600 C 188.243 143.600,188.400 141.800,188.400 139.000 C 188.400 135.178,188.501 134.400,189.000 134.400 C 189.493 134.400,189.600 133.693,189.600 130.433 C 189.600 128.252,189.756 126.407,189.947 126.333 C 190.138 126.260,190.411 125.824,190.554 125.364 C 190.843 124.433,190.341 124.157,184.800 122.200 C 180.377 120.638,178.730 120.002,177.468 119.368 C 176.845 119.056,175.776 118.800,175.092 118.800 C 174.408 118.800,172.847 118.629,171.624 118.419 C 163.463 117.020,161.999 116.800,160.871 116.800 C 160.178 116.800,158.844 116.622,157.906 116.403 C 156.968 116.185,155.364 115.907,154.342 115.785 C 152.536 115.570,152.493 115.532,152.816 114.482 C 153.262 113.034,154.247 109.419,154.800 107.200 C 155.047 106.210,155.442 104.860,155.679 104.200 C 155.915 103.540,156.193 102.324,156.296 101.497 C 156.400 100.671,156.645 99.895,156.842 99.774 C 157.039 99.652,157.200 99.183,157.200 98.730 C 157.200 98.278,157.461 97.073,157.780 96.054 C 158.099 95.034,158.560 93.390,158.805 92.400 C 159.049 91.410,159.439 90.060,159.670 89.400 C 159.902 88.740,160.173 87.660,160.273 87.000 C 160.373 86.340,160.609 85.440,160.797 85.000 C 160.986 84.560,161.233 83.750,161.346 83.200 C 161.756 81.216,162.501 78.586,162.847 77.905 C 163.041 77.523,163.200 76.871,163.200 76.456 C 163.200 76.040,163.443 75.003,163.740 74.150 C 164.586 71.723,164.286 71.406,161.600 71.888 M154.200 74.400 C 154.064 74.620,153.618 74.800,153.209 74.800 C 152.800 74.800,151.955 75.053,151.332 75.363 C 150.710 75.673,149.750 76.098,149.200 76.309 C 145.766 77.623,133.551 83.649,132.800 84.400 C 132.496 84.704,131.145 85.504,129.718 86.226 C 129.014 86.582,128.226 87.127,127.969 87.437 C 127.712 87.747,127.324 88.000,127.107 88.000 C 126.633 88.000,121.057 91.991,120.867 92.467 C 120.793 92.650,120.521 92.800,120.263 92.800 C 120.004 92.800,119.344 93.207,118.796 93.704 C 118.248 94.201,116.990 95.235,116.000 96.002 C 112.993 98.331,111.656 99.567,105.612 105.612 C 99.567 111.656,98.331 112.993,96.002 116.000 C 95.235 116.990,94.201 118.248,93.704 118.796 C 93.207 119.344,92.800 120.004,92.800 120.263 C 92.800 120.521,92.650 120.793,92.467 120.867 C 91.991 121.057,88.000 126.633,88.000 127.107 C 88.000 127.324,87.747 127.712,87.437 127.969 C 87.127 128.226,86.582 129.014,86.226 129.718 C 85.504 131.145,84.704 132.496,84.400 132.800 C 83.649 133.551,77.623 145.766,76.309 149.200 C 76.098 149.750,75.673 150.710,75.363 151.332 C 75.053 151.955,74.800 152.800,74.800 153.209 C 74.800 153.618,74.620 154.064,74.400 154.200 C 74.180 154.336,74.009 154.842,74.021 155.324 C 74.035 155.940,74.226 155.726,74.664 154.600 C 75.007 153.720,75.537 152.433,75.843 151.740 C 76.150 151.046,76.400 150.377,76.400 150.251 C 76.400 149.106,83.231 135.577,86.322 130.600 C 88.951 126.368,94.644 118.167,95.787 116.966 C 96.014 116.727,96.830 115.746,97.600 114.785 C 101.630 109.758,109.758 101.630,114.785 97.600 C 115.746 96.830,116.727 96.014,116.966 95.787 C 118.167 94.644,126.368 88.951,130.600 86.322 C 135.577 83.231,149.106 76.400,150.251 76.400 C 150.377 76.400,151.046 76.150,151.740 75.843 C 152.433 75.537,153.720 75.007,154.600 74.664 C 155.726 74.226,155.940 74.035,155.324 74.021 C 154.842 74.009,154.336 74.180,154.200 74.400 M244.150 74.587 C 244.026 74.910,244.017 75.405,244.131 75.687 C 244.254 75.993,244.350 75.899,244.368 75.455 C 244.401 74.691,246.779 74.782,247.800 75.587 C 248.020 75.760,248.650 76.039,249.200 76.206 C 255.717 78.188,276.049 89.736,280.329 93.887 C 280.619 94.169,280.990 94.400,281.153 94.400 C 281.316 94.400,281.800 94.715,282.228 95.100 C 282.656 95.485,284.805 97.352,287.003 99.249 C 292.615 104.091,298.316 109.836,302.056 114.417 C 302.857 115.398,303.982 116.740,304.555 117.400 C 305.129 118.060,305.599 118.722,305.600 118.871 C 305.600 119.021,305.836 119.381,306.125 119.671 C 307.847 121.403,316.000 133.864,316.000 134.762 C 316.000 134.966,316.142 135.193,316.316 135.267 C 316.489 135.340,317.594 137.380,318.770 139.800 C 319.947 142.220,321.335 145.072,321.855 146.137 C 322.375 147.202,322.800 148.238,322.800 148.439 C 322.800 148.640,323.250 149.737,323.800 150.877 C 324.350 152.017,324.800 153.265,324.800 153.651 C 324.800 154.037,324.966 154.455,325.169 154.581 C 325.372 154.706,325.665 155.386,325.820 156.091 C 325.975 156.797,326.237 157.650,326.403 157.987 C 326.733 158.660,327.655 161.646,328.353 164.300 C 329.338 168.045,329.772 169.285,329.931 168.808 C 330.112 168.263,330.009 167.880,327.616 160.200 C 326.225 155.737,325.016 152.379,323.583 149.000 C 321.940 145.125,321.240 143.613,319.229 139.600 C 316.516 134.184,315.325 132.033,314.559 131.169 C 314.252 130.821,314.000 130.420,314.000 130.276 C 314.000 129.714,306.663 118.973,305.614 118.000 C 305.495 117.890,304.319 116.450,302.999 114.800 C 299.255 110.118,288.486 99.466,284.000 96.008 C 283.010 95.245,282.110 94.508,282.000 94.371 C 281.544 93.804,273.243 88.000,272.886 88.000 C 272.672 88.000,272.288 87.747,272.031 87.437 C 271.774 87.127,270.986 86.582,270.282 86.226 C 268.855 85.504,267.504 84.704,267.200 84.400 C 266.834 84.034,265.050 83.090,259.800 80.482 C 254.825 78.012,253.697 77.488,251.000 76.400 C 250.340 76.134,249.260 75.688,248.600 75.410 C 244.678 73.758,244.482 73.721,244.150 74.587 M243.231 78.000 C 242.950 78.990,242.558 80.213,242.360 80.719 C 242.162 81.224,242.008 82.034,242.018 82.519 C 242.040 83.633,243.185 80.577,243.194 79.380 C 243.197 78.929,243.397 78.363,243.638 78.122 C 243.878 77.882,244.000 77.351,243.908 76.942 C 243.800 76.458,243.564 76.826,243.231 78.000 M241.188 85.261 C 240.930 86.217,240.558 87.413,240.360 87.919 C 240.162 88.424,240.011 89.234,240.025 89.719 C 240.038 90.203,240.319 89.700,240.649 88.600 C 240.978 87.500,241.434 86.002,241.661 85.270 C 241.888 84.539,241.979 83.846,241.864 83.731 C 241.749 83.616,241.445 84.305,241.188 85.261 M239.223 92.273 C 238.972 93.113,238.565 94.476,238.319 95.302 C 238.072 96.128,237.965 96.898,238.080 97.013 C 238.195 97.129,238.512 96.363,238.783 95.311 C 239.054 94.260,239.464 92.899,239.692 92.287 C 239.921 91.675,240.011 91.078,239.894 90.960 C 239.776 90.843,239.474 91.433,239.223 92.273 M237.218 99.298 C 236.937 100.234,236.548 101.522,236.353 102.160 C 235.792 104.003,235.982 104.772,236.561 103.000 C 237.779 99.274,238.118 97.985,237.929 97.796 C 237.819 97.686,237.499 98.362,237.218 99.298 M235.231 106.400 C 234.950 107.390,234.558 108.613,234.360 109.119 C 234.162 109.624,234.008 110.434,234.018 110.919 C 234.040 112.033,235.185 108.977,235.194 107.780 C 235.197 107.329,235.397 106.763,235.638 106.522 C 235.878 106.282,236.000 105.751,235.908 105.342 C 235.800 104.858,235.564 105.226,235.231 106.400 M233.171 113.700 C 232.918 114.635,232.571 115.850,232.400 116.400 C 232.230 116.950,231.782 118.570,231.405 120.000 C 231.028 121.430,230.558 123.013,230.360 123.519 C 230.162 124.024,230.015 124.744,230.034 125.119 C 230.081 126.036,230.500 124.754,232.557 117.400 C 233.111 115.420,233.684 113.395,233.829 112.900 C 233.974 112.405,233.990 112.000,233.863 112.000 C 233.736 112.000,233.425 112.765,233.171 113.700 M229.231 127.462 C 228.997 128.308,228.803 129.304,228.802 129.676 C 228.801 130.048,228.620 130.464,228.400 130.600 C 228.180 130.736,228.009 131.332,228.019 131.924 C 228.035 132.843,228.114 132.767,228.561 131.400 C 229.812 127.574,230.115 126.382,229.894 126.161 C 229.764 126.031,229.466 126.617,229.231 127.462 M227.223 134.673 C 226.972 135.513,226.565 136.876,226.319 137.702 C 226.072 138.528,225.961 139.294,226.071 139.404 C 226.181 139.514,226.492 138.838,226.762 137.902 C 227.033 136.966,227.439 135.602,227.664 134.870 C 227.889 134.139,227.985 133.452,227.877 133.343 C 227.768 133.235,227.474 133.833,227.223 134.673 M73.232 157.139 C 72.995 157.584,72.800 158.322,72.800 158.779 C 72.800 159.237,72.638 159.923,72.440 160.305 C 72.242 160.687,71.775 162.080,71.403 163.400 C 71.031 164.720,70.563 166.353,70.363 167.028 C 70.163 167.704,70.011 168.604,70.025 169.028 C 70.047 169.715,70.557 168.265,71.584 164.600 C 72.930 159.795,73.331 158.492,73.707 157.701 C 74.248 156.563,73.815 156.051,73.232 157.139 M209.053 169.300 L 208.333 170.600 209.158 169.600 C 209.889 168.713,210.214 168.000,209.886 168.000 C 209.824 168.000,209.449 168.585,209.053 169.300 M330.173 170.800 C 330.425 173.143,331.170 177.329,331.561 178.600 L 331.931 179.800 331.966 178.706 C 332.000 177.624,331.775 176.475,330.618 171.800 C 330.291 170.480,330.091 170.030,330.173 170.800 M69.301 171.800 C 67.271 181.258,66.351 190.026,66.342 200.000 C 66.337 205.818,67.038 216.163,67.562 218.000 C 67.915 219.238,67.943 219.123,67.804 217.000 C 66.674 199.828,66.715 192.670,68.000 182.200 C 68.370 179.184,68.599 177.915,69.663 172.953 C 69.905 171.828,70.019 170.658,69.916 170.353 C 69.814 170.049,69.537 170.700,69.301 171.800 M332.222 183.000 C 333.001 193.162,333.182 200.646,332.812 207.300 C 332.589 211.315,332.323 215.680,332.222 217.000 C 332.067 219.024,332.098 219.181,332.416 218.000 C 334.081 211.834,334.081 188.166,332.416 182.000 C 332.098 180.819,332.067 180.976,332.222 183.000 M189.053 204.100 L 188.333 205.400 189.158 204.400 C 189.889 203.513,190.214 202.800,189.886 202.800 C 189.824 202.800,189.449 203.385,189.053 204.100 M180.895 218.223 C 180.403 218.974,180.000 219.723,180.000 219.887 C 180.000 220.051,180.466 219.500,181.036 218.662 C 181.605 217.824,182.008 217.075,181.931 216.998 C 181.854 216.920,181.388 217.472,180.895 218.223 M68.040 220.954 C 68.018 221.808,68.168 223.158,68.373 223.954 C 68.577 224.749,68.970 226.480,69.245 227.800 C 69.523 229.133,69.821 229.859,69.915 229.434 C 70.008 229.012,69.891 228.022,69.655 227.234 C 69.420 226.445,68.969 224.360,68.654 222.600 C 68.228 220.225,68.070 219.801,68.040 220.954 M331.272 223.000 C 330.989 224.540,330.570 226.543,330.340 227.452 C 330.111 228.361,329.992 229.441,330.076 229.852 C 330.161 230.263,330.459 229.430,330.739 228.000 C 331.019 226.570,331.433 224.765,331.659 223.988 C 331.885 223.211,332.006 222.041,331.928 221.388 C 331.823 220.516,331.649 220.946,331.272 223.000 M70.025 230.972 C 70.011 231.396,70.168 232.296,70.374 232.972 C 70.580 233.647,70.952 234.983,71.202 235.939 C 71.451 236.895,71.762 237.571,71.892 237.441 C 72.023 237.311,71.934 236.528,71.694 235.702 C 70.463 231.449,70.047 230.271,70.025 230.972 M329.255 232.446 C 328.975 233.411,328.578 234.753,328.373 235.428 C 327.798 237.321,327.994 238.413,328.583 236.600 C 329.769 232.951,330.089 231.666,329.931 231.192 C 329.839 230.917,329.535 231.481,329.255 232.446 M72.153 238.800 C 72.571 240.985,74.167 245.820,75.389 248.600 C 75.679 249.260,76.134 250.340,76.400 251.000 C 77.457 253.618,77.986 254.775,80.155 259.200 C 82.752 264.498,84.632 267.927,85.438 268.831 C 85.747 269.179,86.001 269.629,86.002 269.831 C 86.003 270.034,86.464 270.740,87.026 271.400 L 88.049 272.600 86.941 270.600 C 86.332 269.500,85.271 267.700,84.583 266.600 C 82.933 263.961,76.400 250.508,76.400 249.749 C 76.400 249.623,76.147 248.954,75.839 248.260 C 74.928 246.215,73.200 241.420,73.200 240.937 C 73.200 240.692,72.921 239.886,72.581 239.146 C 72.109 238.119,72.007 238.037,72.153 238.800 M327.285 239.373 C 327.018 239.959,326.800 240.753,326.800 241.139 C 326.800 241.524,326.603 242.037,326.362 242.278 C 326.122 242.518,325.996 243.049,326.083 243.458 C 326.191 243.968,326.399 243.701,326.748 242.600 C 327.027 241.720,327.444 240.613,327.674 240.139 C 327.905 239.666,328.020 239.061,327.931 238.794 C 327.842 238.527,327.552 238.788,327.285 239.373 M325.237 245.631 C 324.952 246.384,324.573 247.360,324.394 247.800 C 324.215 248.240,323.523 249.950,322.856 251.600 C 322.189 253.250,321.260 255.382,320.793 256.339 C 320.326 257.295,320.039 258.172,320.154 258.288 C 320.375 258.509,322.351 254.395,323.654 251.000 C 324.464 248.891,324.915 247.814,325.646 246.239 C 325.892 245.711,326.017 245.050,325.924 244.771 C 325.830 244.491,325.521 244.878,325.237 245.631 M319.431 259.100 C 318.970 259.558,317.966 262.099,318.167 262.300 C 318.264 262.398,318.715 261.709,319.169 260.769 C 319.963 259.126,320.066 258.469,319.431 259.100 M317.342 263.273 C 317.156 263.563,316.811 264.160,316.574 264.600 C 315.014 267.503,313.717 269.702,312.359 271.746 C 311.501 273.036,310.800 274.236,310.800 274.412 C 310.800 274.589,310.647 274.793,310.461 274.867 C 310.274 274.940,309.689 275.652,309.161 276.449 C 301.925 287.360,287.360 301.925,276.449 309.161 C 275.652 309.689,274.940 310.274,274.867 310.461 C 274.793 310.647,274.589 310.800,274.412 310.800 C 274.236 310.800,273.036 311.501,271.746 312.358 C 269.413 313.908,267.566 314.992,264.698 316.495 C 263.365 317.195,262.424 318.000,262.941 318.000 C 263.299 318.000,268.766 314.804,272.229 312.570 C 290.717 300.643,305.786 284.669,316.685 265.444 C 317.823 263.435,318.346 261.709,317.342 263.273 M88.022 272.937 C 88.002 273.251,93.822 281.559,94.371 282.000 C 94.508 282.110,95.246 283.009,96.010 283.999 C 98.165 286.787,98.446 287.116,100.915 289.740 C 105.273 294.370,107.504 296.602,110.251 299.076 C 114.047 302.496,114.794 303.136,116.400 304.343 C 117.170 304.922,117.890 305.503,118.000 305.634 C 120.511 308.627,145.376 323.200,147.971 323.200 C 148.213 323.200,148.723 323.371,149.105 323.581 C 150.208 324.185,152.448 325.096,154.400 325.735 C 155.390 326.059,156.650 326.504,157.200 326.724 C 157.750 326.943,159.820 327.596,161.800 328.174 C 163.780 328.752,166.054 329.422,166.854 329.661 C 167.653 329.901,168.533 330.022,168.808 329.931 C 169.283 329.772,167.767 329.243,164.200 328.320 C 161.142 327.529,154.499 325.360,152.200 324.403 C 151.760 324.219,150.050 323.526,148.400 322.862 C 145.203 321.575,134.415 316.196,132.527 314.948 C 130.628 313.692,129.826 313.206,129.200 312.934 C 128.870 312.790,127.388 311.801,125.906 310.736 C 124.424 309.671,123.044 308.800,122.839 308.800 C 122.634 308.800,122.407 308.654,122.333 308.475 C 122.260 308.296,121.120 307.363,119.800 306.402 C 112.259 300.911,103.277 292.210,96.052 283.400 C 95.691 282.960,94.082 280.800,92.478 278.600 C 88.365 272.963,88.047 272.559,88.022 272.937 M261.400 318.400 C 261.264 318.620,260.825 318.800,260.425 318.800 C 260.025 318.800,259.474 319.070,259.200 319.400 C 258.926 319.730,258.780 320.000,258.876 320.000 C 259.233 320.000,262.400 318.374,262.400 318.191 C 262.400 317.839,261.650 317.996,261.400 318.400 M257.200 320.361 C 255.450 321.278,254.678 321.624,251.772 322.793 C 250.027 323.495,248.240 324.209,247.800 324.380 C 245.494 325.276,244.268 325.951,244.905 325.974 C 245.293 325.988,245.923 325.841,246.305 325.647 C 247.364 325.108,248.797 324.500,251.000 323.654 C 253.898 322.542,258.400 320.443,258.400 320.205 C 258.400 319.923,257.916 319.986,257.200 320.361 M241.800 326.489 C 239.186 327.369,238.127 327.947,239.076 327.974 C 239.558 327.988,240.064 327.820,240.200 327.600 C 240.336 327.380,240.842 327.194,241.324 327.186 C 241.806 327.178,242.650 326.914,243.200 326.600 C 244.339 325.949,243.583 325.889,241.800 326.489 M235.200 328.415 C 234.650 328.596,233.411 328.974,232.446 329.254 C 231.481 329.534,230.917 329.839,231.192 329.931 C 231.666 330.089,232.951 329.769,236.600 328.583 C 237.791 328.196,237.945 328.066,237.200 328.074 C 236.650 328.080,235.750 328.233,235.200 328.415 M171.800 330.618 C 176.475 331.775,177.624 332.000,178.706 331.966 L 179.800 331.931 178.600 331.555 C 177.463 331.199,173.870 330.573,170.800 330.195 C 170.030 330.101,170.480 330.291,171.800 330.618 M227.200 330.420 C 226.650 330.604,224.850 330.984,223.200 331.265 C 221.085 331.625,220.550 331.819,221.388 331.923 C 222.041 332.004,223.211 331.889,223.988 331.667 C 224.765 331.446,226.570 331.000,228.000 330.677 C 229.526 330.332,230.104 330.089,229.400 330.087 C 228.740 330.086,227.750 330.236,227.200 330.420 M182.000 332.416 C 183.287 332.763,187.853 333.206,196.942 333.866 C 200.885 334.153,211.779 333.445,216.400 332.602 C 219.040 332.120,219.136 332.075,217.200 332.225 C 204.273 333.228,196.126 333.228,183.000 332.222 C 180.978 332.067,180.821 332.098,182.000 332.416 " stroke="none" fill="#f8bc8e" fill-rule="evenodd"></path><path id="path8" d="M173.695 230.223 C 173.203 230.974,172.800 231.723,172.800 231.887 C 172.800 232.051,173.266 231.500,173.836 230.662 C 174.405 229.824,174.808 229.075,174.731 228.998 C 174.654 228.920,174.188 229.472,173.695 230.223 M144.900 236.041 C 144.047 236.357,144.000 236.589,143.997 240.487 C 143.995 242.749,143.800 246.220,143.564 248.200 C 143.158 251.608,142.903 255.907,142.040 273.884 C 141.837 278.110,141.550 282.115,141.403 282.784 C 140.702 285.978,143.393 283.032,146.869 276.799 C 147.421 275.809,149.522 272.326,151.537 269.059 C 153.551 265.792,155.200 263.046,155.200 262.957 C 155.200 262.867,156.518 260.680,158.128 258.097 C 159.739 255.514,161.176 253.130,161.322 252.800 C 161.468 252.470,162.839 250.179,164.368 247.708 C 165.898 245.237,166.993 243.120,166.803 243.002 C 166.613 242.885,166.331 243.187,166.176 243.675 C 165.947 244.397,161.149 252.494,159.584 254.800 C 159.360 255.130,159.071 255.715,158.942 256.100 C 158.812 256.485,158.569 256.800,158.400 256.800 C 158.231 256.800,157.988 257.115,157.858 257.500 C 157.729 257.885,157.393 258.549,157.112 258.977 C 155.763 261.025,154.000 263.987,154.000 264.207 C 154.000 264.343,153.595 265.026,153.099 265.727 C 151.709 267.691,151.197 268.538,150.942 269.300 C 150.812 269.685,150.569 270.000,150.400 270.000 C 150.231 270.000,149.988 270.315,149.858 270.700 C 149.729 271.085,149.393 271.749,149.112 272.177 C 147.763 274.225,146.000 277.187,146.000 277.407 C 146.000 277.543,145.550 278.243,145.000 278.964 C 144.450 279.686,143.994 280.439,143.987 280.638 C 143.965 281.217,142.404 282.938,142.140 282.673 C 142.008 282.541,142.112 280.041,142.372 277.117 C 142.632 274.192,143.001 268.020,143.192 263.400 C 143.382 258.780,143.636 254.730,143.756 254.400 C 143.875 254.070,144.165 250.240,144.401 245.889 C 144.957 235.587,144.739 236.080,148.668 236.257 C 152.360 236.424,152.158 236.146,148.400 235.887 C 146.970 235.789,145.395 235.858,144.900 236.041 " stroke="none" fill="#a4a4a4" fill-rule="evenodd"></path></g></svg>