<svg id="svg" version="1.1" xmlns="http://www.w3.org/2000/svg" xmlns:xlink="http://www.w3.org/1999/xlink" width="400" height="376.47058823529414" viewBox="0, 0, 400,376.47058823529414"><g id="svgg"><path id="path0" d="M182.566 25.092 C 182.418 25.240,182.298 25.756,182.298 26.240 L 182.298 27.119 176.911 27.119 C 171.349 27.119,170.621 27.302,170.621 28.701 C 170.621 29.430,170.566 29.446,167.923 29.472 L 166.167 29.489 166.364 30.704 C 166.477 31.400,166.383 32.030,166.143 32.178 C 165.905 32.325,165.724 33.518,165.723 34.956 C 165.720 38.009,165.184 40.110,164.239 40.772 C 163.678 41.165,163.479 41.972,163.263 44.735 C 163.042 47.563,162.837 48.372,162.156 49.107 C 161.498 49.817,161.234 50.778,160.908 53.643 C 160.568 56.635,160.325 57.481,159.532 58.423 C 158.716 59.393,158.569 59.941,158.569 62.000 C 158.569 64.557,157.975 66.507,156.932 67.372 C 156.490 67.739,156.306 68.504,156.300 70.008 C 156.288 72.887,155.752 74.986,154.850 75.688 C 154.252 76.153,154.047 76.918,153.839 79.473 C 153.695 81.234,153.414 82.879,153.215 83.129 C 152.812 83.636,153.517 84.868,154.674 85.676 C 155.108 85.979,157.407 86.262,160.829 86.433 C 166.127 86.698,169.313 87.234,171.019 88.147 C 171.474 88.390,173.647 88.712,175.848 88.861 C 179.725 89.123,181.536 89.657,183.062 90.989 C 183.379 91.265,184.605 91.743,185.786 92.051 C 186.968 92.359,189.021 93.129,190.349 93.763 C 191.677 94.397,193.172 94.915,193.672 94.915 C 194.172 94.915,195.124 95.316,195.788 95.806 C 196.453 96.297,198.041 96.919,199.317 97.190 C 200.593 97.461,201.938 97.983,202.305 98.351 C 202.912 98.957,203.842 99.287,206.867 99.968 C 208.803 100.403,209.697 106.566,207.986 107.687 C 207.391 108.077,206.880 109.351,206.386 111.676 C 206.122 112.919,205.595 114.285,205.216 114.711 C 204.836 115.137,204.414 116.323,204.278 117.347 C 204.143 118.371,203.640 119.972,203.162 120.904 C 202.685 121.836,202.117 123.398,201.902 124.374 C 201.686 125.350,201.198 126.706,200.818 127.387 C 200.437 128.068,200.017 129.176,199.884 129.849 C 199.751 130.523,199.303 131.817,198.889 132.726 C 198.475 133.635,197.944 135.203,197.709 136.210 C 197.474 137.217,196.969 138.719,196.586 139.548 C 196.204 140.377,195.606 141.987,195.257 143.126 C 194.909 144.266,194.329 145.791,193.968 146.516 C 193.607 147.241,193.191 148.427,193.043 149.153 C 192.895 149.878,192.381 151.318,191.901 152.354 C 191.421 153.390,190.904 154.906,190.751 155.722 C 190.598 156.539,190.174 157.726,189.809 158.359 C 189.443 158.992,188.883 160.553,188.563 161.827 C 188.244 163.100,187.636 164.711,187.213 165.405 C 186.790 166.099,186.442 166.921,186.440 167.232 C 186.433 168.278,185.663 170.592,185.151 171.104 C 184.871 171.384,184.421 172.618,184.151 173.848 C 183.880 175.077,183.284 176.846,182.826 177.778 C 182.368 178.710,181.899 180.151,181.783 180.979 C 181.532 182.776,181.677 182.406,180.854 183.355 C 180.474 183.793,179.953 185.328,179.696 186.767 C 179.423 188.295,178.868 189.871,178.362 190.557 C 177.878 191.213,177.383 192.582,177.240 193.657 C 177.088 194.803,176.612 196.072,176.063 196.791 C 175.437 197.612,175.141 198.487,175.141 199.521 C 175.141 200.756,174.077 204.333,174.026 203.269 C 173.953 201.730,172.952 204.618,172.756 206.934 C 172.618 208.567,172.315 210.133,172.082 210.413 C 171.755 210.807,171.803 210.923,172.292 210.923 C 172.870 210.923,172.874 210.994,172.338 211.760 C 171.928 212.344,171.748 213.510,171.739 215.621 C 171.731 217.680,171.551 218.877,171.174 219.375 C 170.826 219.835,170.621 220.971,170.621 222.439 C 170.621 223.777,170.381 225.233,170.059 225.851 C 169.305 227.297,169.246 234.275,169.988 234.275 C 170.290 234.275,170.621 233.507,170.835 232.310 C 171.131 230.656,171.335 230.311,172.128 230.130 C 172.855 229.963,173.097 229.639,173.187 228.710 C 173.257 227.994,173.753 227.058,174.411 226.400 C 175.020 225.791,175.518 224.953,175.518 224.538 C 175.518 223.661,176.461 222.599,177.240 222.599 C 177.553 222.599,177.778 222.230,177.778 221.713 C 177.778 220.078,178.547 218.507,179.408 218.384 C 180.024 218.296,180.255 217.967,180.343 217.053 C 180.416 216.304,180.884 215.440,181.567 214.795 C 182.176 214.220,182.674 213.467,182.674 213.121 C 182.674 212.010,183.131 211.250,183.997 210.921 C 184.629 210.681,184.903 210.183,185.090 208.934 C 185.269 207.743,185.584 207.137,186.196 206.810 C 186.733 206.522,187.216 205.735,187.495 204.694 C 187.770 203.664,188.296 202.802,188.884 202.417 C 189.526 201.996,189.831 201.453,189.831 200.731 C 189.831 199.947,190.129 199.490,190.960 198.998 C 191.622 198.608,192.093 198.013,192.096 197.565 C 192.105 196.119,192.532 195.196,193.407 194.728 C 193.955 194.434,194.375 193.772,194.527 192.960 C 194.661 192.245,195.270 191.139,195.879 190.501 C 196.488 189.864,196.987 189.034,196.987 188.658 C 196.987 188.281,197.495 187.394,198.117 186.687 C 198.738 185.979,199.247 185.046,199.247 184.613 C 199.247 184.181,199.736 183.465,200.335 183.022 C 201.081 182.470,201.495 181.765,201.653 180.778 C 201.794 179.900,202.238 179.060,202.793 178.624 C 203.293 178.230,203.884 177.233,204.106 176.409 C 204.328 175.584,204.936 174.539,205.456 174.086 C 205.977 173.633,206.403 172.929,206.403 172.520 C 206.403 172.112,206.911 171.199,207.533 170.491 C 208.154 169.783,208.663 169.022,208.663 168.800 C 208.663 167.939,209.564 166.482,210.227 166.272 C 210.610 166.150,210.923 165.707,210.923 165.286 C 210.923 164.183,212.055 161.959,212.616 161.959 C 212.878 161.959,213.276 161.232,213.500 160.345 C 213.723 159.457,214.332 158.360,214.853 157.908 C 215.373 157.455,215.910 156.613,216.046 156.038 C 216.182 155.462,216.674 154.567,217.141 154.049 C 217.607 153.531,218.192 152.470,218.440 151.692 C 218.689 150.914,219.198 150.113,219.572 149.913 C 219.946 149.713,220.362 148.960,220.497 148.240 C 220.633 147.513,221.239 146.463,221.859 145.877 C 222.473 145.298,222.976 144.458,222.976 144.010 C 222.976 143.563,223.569 142.487,224.294 141.620 C 225.019 140.752,225.612 139.744,225.612 139.379 C 225.612 139.015,226.020 138.276,226.518 137.739 C 227.017 137.201,227.623 136.158,227.867 135.421 C 228.110 134.684,228.627 133.911,229.016 133.703 C 229.405 133.494,229.831 132.745,229.964 132.037 C 230.097 131.329,230.698 130.199,231.299 129.525 C 231.900 128.852,232.392 128.017,232.392 127.669 C 232.392 127.321,232.983 126.292,233.706 125.383 C 234.429 124.473,235.023 123.458,235.025 123.127 C 235.027 122.796,235.382 122.119,235.815 121.621 C 236.247 121.123,236.850 120.122,237.153 119.397 C 237.456 118.672,238.091 117.655,238.562 117.137 C 239.792 115.786,241.832 110.585,242.228 107.792 C 242.414 106.479,242.973 104.527,243.471 103.455 C 243.969 102.384,244.496 100.574,244.643 99.435 C 244.790 98.296,245.216 96.761,245.589 96.025 C 245.962 95.289,246.466 93.594,246.708 92.258 C 246.951 90.923,247.489 88.983,247.905 87.947 C 248.321 86.911,248.905 84.793,249.204 83.239 C 249.502 81.685,250.090 79.592,250.512 78.586 C 250.934 77.581,251.444 75.730,251.647 74.472 C 251.849 73.215,252.407 71.326,252.886 70.274 C 253.365 69.222,253.882 67.346,254.035 66.106 C 254.189 64.865,254.622 63.246,254.999 62.507 C 255.376 61.769,255.882 60.072,256.124 58.737 C 256.367 57.401,256.908 55.461,257.326 54.426 C 257.745 53.390,258.242 51.644,258.430 50.547 C 258.619 49.450,259.039 47.839,259.363 46.969 C 260.067 45.083,260.797 42.425,261.434 39.436 C 261.690 38.236,262.040 37.166,262.211 37.060 C 262.383 36.954,262.524 36.487,262.524 36.023 C 262.524 35.004,263.184 34.275,264.105 34.275 C 264.837 34.275,264.883 34.100,264.448 32.989 C 264.131 32.180,263.728 32.063,260.310 31.790 C 257.921 31.598,256.869 31.087,257.148 30.252 C 257.240 29.975,257.009 29.889,256.519 30.017 C 256.065 30.136,255.744 30.038,255.744 29.783 C 255.744 29.542,255.532 29.373,255.273 29.407 C 252.593 29.755,247.933 29.318,247.935 28.719 C 247.936 28.357,247.914 27.875,247.886 27.648 C 247.852 27.374,245.968 27.209,242.279 27.157 C 239.177 27.113,236.667 26.920,236.597 26.719 C 236.527 26.522,236.311 26.459,236.117 26.579 C 235.922 26.700,235.787 26.658,235.817 26.488 C 236.112 24.791,237.416 24.881,212.524 24.872 C 199.732 24.868,189.435 24.990,189.642 25.144 C 189.849 25.298,190.016 25.847,190.012 26.365 C 190.002 27.620,188.604 27.708,188.512 26.460 C 188.478 25.993,188.591 25.612,188.764 25.612 C 188.936 25.612,189.077 25.466,189.077 25.287 C 189.077 24.894,182.948 24.711,182.566 25.092 M236.911 115.395 C 236.911 117.883,236.526 118.859,235.372 119.295 C 234.341 119.684,234.275 119.835,234.275 121.813 C 234.275 123.900,234.266 123.917,233.145 123.917 L 232.015 123.917 232.015 120.385 C 232.015 115.257,232.561 114.124,235.033 114.124 L 236.911 114.124 236.911 115.395 M161.003 235.025 C 161.873 235.193,162.717 235.646,163.026 236.112 C 163.318 236.552,163.790 236.911,164.075 236.911 C 164.360 236.911,165.237 237.493,166.025 238.205 C 167.715 239.732,168.829 239.555,168.066 237.880 C 167.739 237.162,167.340 236.911,166.526 236.911 C 165.826 236.911,164.990 236.502,164.218 235.782 C 163.211 234.841,162.716 234.659,161.260 234.695 L 159.510 234.738 161.003 235.025 " stroke="none" fill="#d18650" fill-rule="evenodd"></path><path id="path1" d="M232.585 115.489 C 232.214 116.378,232.015 118.083,232.015 120.385 L 232.015 123.917 233.145 123.917 C 234.266 123.917,234.275 123.900,234.275 121.813 C 234.275 119.835,234.341 119.684,235.372 119.295 C 236.526 118.859,236.911 117.883,236.911 115.395 L 236.911 114.124 235.033 114.124 C 233.231 114.124,233.132 114.179,232.585 115.489 M145.954 233.427 C 144.091 233.497,142.445 233.676,142.295 233.825 C 142.146 233.974,141.830 239.603,141.594 246.333 C 141.297 254.762,141.017 258.803,140.695 259.322 C 140.392 259.809,140.139 262.541,139.981 267.043 C 139.847 270.876,139.536 276.675,139.290 279.931 C 138.726 287.394,139.494 289.886,141.111 285.844 C 141.436 285.033,141.855 284.369,142.043 284.369 C 142.231 284.369,142.675 283.734,143.030 282.957 C 143.384 282.180,144.144 280.988,144.718 280.307 C 145.293 279.627,145.763 278.841,145.763 278.560 C 145.763 278.280,146.356 277.188,147.081 276.134 C 147.806 275.080,148.399 274.065,148.399 273.878 C 148.399 273.691,148.677 273.308,149.016 273.027 C 149.355 272.746,149.951 271.771,150.341 270.861 C 150.732 269.950,151.471 268.706,151.985 268.096 C 152.499 267.485,152.919 266.774,152.919 266.517 C 152.919 266.259,153.423 265.382,154.038 264.568 C 154.654 263.754,155.163 262.890,155.168 262.647 C 155.174 262.404,155.571 261.726,156.049 261.140 C 156.956 260.031,158.595 257.413,159.887 255.010 C 160.301 254.239,161.022 253.088,161.488 252.452 C 161.954 251.816,162.335 251.134,162.335 250.935 C 162.335 250.737,162.844 249.935,163.465 249.153 C 164.087 248.371,164.595 247.513,164.595 247.246 C 164.595 246.980,165.021 246.256,165.542 245.637 C 166.739 244.214,167.608 242.152,167.608 240.734 C 167.608 239.581,165.141 236.911,164.075 236.911 C 163.790 236.911,163.313 236.543,163.014 236.093 C 162.578 235.436,161.932 235.218,159.734 234.983 C 158.229 234.822,156.801 234.532,156.559 234.338 C 155.911 233.818,152.337 233.133,150.735 233.222 C 149.968 233.265,147.817 233.357,145.954 233.427 " stroke="none" fill="#626262" fill-rule="evenodd"></path><path id="path2" d="M161.474 29.612 C 161.326 29.760,161.205 30.276,161.205 30.760 C 161.205 31.606,161.096 31.638,158.223 31.638 C 154.507 31.638,154.049 31.808,154.049 33.185 L 154.049 34.275 150.659 34.275 L 147.269 34.275 147.269 35.405 L 147.269 36.535 144.821 36.535 L 142.373 36.535 142.373 37.665 L 142.373 38.795 139.831 38.800 C 136.539 38.807,135.662 39.062,135.520 40.057 C 135.424 40.729,135.023 40.932,133.145 41.252 C 131.078 41.605,130.875 41.725,130.766 42.664 C 130.666 43.522,130.465 43.691,129.542 43.691 C 128.569 43.691,128.437 43.824,128.437 44.803 C 128.437 45.904,128.414 45.916,126.083 46.027 C 123.827 46.135,123.724 46.182,123.610 47.175 C 123.504 48.095,123.335 48.211,122.103 48.216 C 119.813 48.225,119.021 48.574,119.021 49.573 C 119.021 50.207,118.808 50.471,118.298 50.471 C 116.935 50.471,116.384 50.911,116.384 51.999 C 116.384 53.038,116.321 53.073,114.218 53.183 C 112.168 53.290,112.046 53.351,111.934 54.331 C 111.834 55.199,111.635 55.367,110.709 55.367 C 109.738 55.367,109.605 55.501,109.605 56.473 C 109.605 57.446,109.457 57.594,108.380 57.697 C 107.374 57.794,107.136 57.992,107.041 58.812 C 106.937 59.713,106.723 59.838,104.781 60.130 C 102.829 60.423,102.626 60.543,102.520 61.465 C 102.429 62.248,102.172 62.504,101.390 62.595 C 100.607 62.685,100.350 62.942,100.260 63.725 C 100.163 64.559,99.930 64.760,98.941 64.855 C 97.953 64.951,97.719 65.151,97.623 65.985 C 97.533 66.768,97.276 67.024,96.493 67.115 C 95.711 67.205,95.454 67.462,95.363 68.242 C 95.274 69.014,94.984 69.311,94.139 69.496 C 93.222 69.698,93.032 69.929,93.032 70.840 C 93.032 71.811,92.900 71.940,91.902 71.940 C 90.903 71.940,90.772 72.068,90.772 73.046 C 90.772 74.018,90.624 74.166,89.548 74.270 C 88.536 74.368,88.304 74.563,88.207 75.401 C 88.117 76.183,87.860 76.441,87.079 76.531 C 86.286 76.623,86.026 76.892,85.876 77.778 C 85.724 78.671,85.467 78.933,84.650 79.027 C 83.790 79.126,83.616 79.328,83.616 80.226 C 83.616 81.124,83.441 81.326,82.580 81.425 C 81.601 81.538,81.538 81.662,81.432 83.687 C 81.321 85.796,81.300 85.833,80.114 85.947 C 79.127 86.043,78.887 86.245,78.793 87.057 C 78.705 87.815,78.416 88.102,77.569 88.272 C 76.641 88.457,76.460 88.676,76.460 89.608 C 76.460 90.543,76.293 90.741,75.424 90.841 C 74.443 90.954,74.382 91.076,74.275 93.126 C 74.165 95.236,74.134 95.292,73.075 95.292 C 72.123 95.292,71.973 95.445,71.869 96.516 C 71.775 97.495,71.563 97.767,70.810 97.872 C 69.569 98.046,69.316 98.516,69.309 100.659 C 69.303 102.395,69.269 102.448,68.173 102.448 C 67.189 102.448,67.043 102.583,67.043 103.496 C 67.043 104.313,66.796 104.636,65.913 104.969 C 64.846 105.372,64.783 105.511,64.783 107.475 C 64.783 109.464,64.738 109.560,63.748 109.674 C 62.767 109.786,62.706 109.908,62.599 111.959 C 62.493 113.981,62.424 114.124,61.554 114.124 C 60.454 114.124,59.887 115.287,59.887 117.539 C 59.887 118.761,59.757 119.021,59.147 119.021 C 58.054 119.021,57.627 120.164,57.627 123.092 C 57.627 125.695,57.622 125.707,56.497 125.932 C 55.395 126.153,55.367 126.213,55.367 128.380 C 55.367 130.548,55.340 130.608,54.237 130.829 L 53.107 131.055 53.107 134.429 L 53.107 137.803 52.073 137.922 C 50.799 138.069,50.578 138.903,50.515 143.785 L 50.471 147.269 49.341 147.269 L 48.211 147.269 48.211 153.107 L 48.211 158.945 47.081 158.945 L 45.951 158.945 45.951 188.324 L 45.951 217.702 47.081 217.702 L 48.211 217.702 48.211 223.540 L 48.211 229.379 49.341 229.379 L 50.471 229.379 50.515 232.863 C 50.578 237.745,50.799 238.579,52.073 238.726 L 53.107 238.845 53.107 242.219 L 53.107 245.593 54.220 245.816 C 55.292 246.030,55.338 246.124,55.445 248.349 C 55.551 250.557,55.601 250.664,56.591 250.778 C 57.611 250.896,57.627 250.938,57.627 253.534 C 57.627 256.483,58.052 257.627,59.147 257.627 C 59.757 257.627,59.887 257.887,59.887 259.109 C 59.887 261.361,60.454 262.524,61.554 262.524 C 62.424 262.524,62.493 262.667,62.599 264.689 C 62.706 266.739,62.767 266.861,63.748 266.974 C 64.738 267.088,64.783 267.184,64.783 269.173 C 64.783 271.137,64.846 271.275,65.913 271.678 C 66.796 272.011,67.043 272.334,67.043 273.152 C 67.043 274.065,67.189 274.200,68.173 274.200 C 69.227 274.200,69.304 274.295,69.308 275.612 C 69.317 277.961,69.675 278.737,70.859 278.974 C 71.748 279.152,71.940 279.382,71.940 280.273 C 71.940 281.221,72.078 281.356,73.051 281.356 C 74.139 281.356,74.164 281.400,74.275 283.522 C 74.382 285.572,74.443 285.694,75.424 285.807 C 76.293 285.907,76.460 286.104,76.460 287.040 C 76.460 287.972,76.641 288.191,77.569 288.376 C 78.416 288.546,78.705 288.832,78.793 289.591 C 78.887 290.403,79.127 290.605,80.114 290.700 C 81.300 290.815,81.321 290.852,81.432 292.960 C 81.538 294.986,81.601 295.110,82.580 295.223 C 83.440 295.322,83.616 295.524,83.616 296.417 C 83.616 297.300,83.813 297.535,84.723 297.735 C 85.568 297.921,85.858 298.218,85.947 298.989 C 86.037 299.770,86.295 300.027,87.077 300.117 C 87.860 300.207,88.117 300.464,88.207 301.247 C 88.304 302.085,88.536 302.280,89.548 302.378 C 90.624 302.482,90.772 302.629,90.772 303.602 C 90.772 304.580,90.903 304.708,91.902 304.708 C 92.909 304.708,93.032 304.833,93.032 305.847 C 93.032 306.807,93.207 307.022,94.141 307.209 C 94.988 307.378,95.277 307.665,95.365 308.423 C 95.453 309.185,95.716 309.443,96.493 309.533 C 97.276 309.624,97.533 309.880,97.623 310.663 C 97.719 311.496,97.953 311.697,98.941 311.792 C 99.930 311.888,100.163 312.088,100.260 312.922 C 100.350 313.706,100.607 313.963,101.390 314.053 C 102.172 314.143,102.429 314.400,102.520 315.183 C 102.626 316.102,102.834 316.227,104.783 316.536 C 106.708 316.842,106.941 316.977,107.043 317.855 C 107.136 318.653,107.380 318.854,108.380 318.950 C 109.457 319.054,109.605 319.202,109.605 320.175 C 109.605 321.147,109.738 321.281,110.709 321.281 C 111.635 321.281,111.834 321.449,111.934 322.316 C 112.046 323.297,112.168 323.358,114.218 323.465 C 116.321 323.575,116.384 323.609,116.384 324.649 C 116.384 325.737,116.935 326.177,118.298 326.177 C 118.808 326.177,119.021 326.441,119.021 327.075 C 119.021 328.074,119.813 328.423,122.103 328.432 C 123.335 328.436,123.504 328.553,123.610 329.473 C 123.724 330.465,123.827 330.513,126.083 330.621 C 128.414 330.732,128.437 330.744,128.437 331.845 C 128.437 332.824,128.569 332.957,129.542 332.957 C 130.467 332.957,130.666 333.125,130.766 333.992 C 130.875 334.943,131.072 335.060,133.145 335.414 C 135.012 335.733,135.425 335.940,135.520 336.600 C 135.662 337.584,136.549 337.841,139.831 337.848 L 142.373 337.853 142.373 338.983 L 142.373 340.113 144.821 340.113 L 147.269 340.113 147.269 341.243 L 147.269 342.373 150.659 342.373 L 154.049 342.373 154.049 343.463 C 154.049 344.838,154.508 345.009,158.198 345.009 C 161.144 345.009,161.156 345.013,161.274 346.045 L 161.394 347.081 165.984 347.187 L 170.574 347.292 170.692 348.316 L 170.810 349.341 176.530 349.445 L 182.249 349.549 182.368 350.575 L 182.486 351.601 209.165 351.697 L 235.845 351.794 236.269 350.671 L 236.693 349.548 242.358 349.444 L 248.023 349.341 248.142 348.305 L 248.261 347.269 252.216 347.269 C 256.432 347.269,257.627 346.934,257.627 345.749 C 257.627 345.076,257.896 345.009,260.613 345.009 C 263.779 345.009,264.783 344.553,264.783 343.114 C 264.783 342.479,265.137 342.390,268.063 342.293 C 271.213 342.189,271.351 342.147,271.562 341.243 C 271.759 340.397,272.011 340.282,274.026 340.113 C 276.141 339.936,276.278 339.865,276.390 338.889 C 276.502 337.918,276.623 337.853,278.337 337.853 C 280.739 337.853,281.356 337.579,281.356 336.513 C 281.356 335.703,281.533 335.622,283.522 335.518 C 285.663 335.406,285.689 335.391,285.805 334.181 L 285.923 332.957 288.169 332.957 C 290.362 332.957,290.420 332.931,290.640 331.827 C 290.853 330.765,290.972 330.697,292.627 330.697 C 294.494 330.697,295.292 330.223,295.292 329.115 C 295.292 328.613,295.585 328.437,296.422 328.437 C 297.426 328.437,297.552 328.311,297.552 327.307 C 297.552 326.204,297.597 326.177,299.408 326.177 C 301.407 326.177,302.448 325.523,302.448 324.267 C 302.448 323.711,302.713 323.540,303.578 323.540 C 304.583 323.540,304.708 323.415,304.708 322.411 C 304.708 321.326,304.774 321.281,306.372 321.281 C 308.616 321.281,309.228 320.990,309.228 319.922 C 309.228 319.170,309.417 319.021,310.367 319.021 C 311.327 319.021,311.542 318.846,311.728 317.912 C 311.898 317.064,312.185 316.775,312.943 316.688 C 313.759 316.593,313.957 316.354,314.054 315.348 C 314.158 314.272,314.306 314.124,315.278 314.124 C 316.256 314.124,316.384 313.993,316.384 312.994 C 316.384 311.990,316.510 311.864,317.514 311.864 C 318.519 311.864,318.644 311.739,318.644 310.734 C 318.644 309.681,318.739 309.604,320.056 309.599 C 322.393 309.591,323.182 309.231,323.414 308.070 C 323.574 307.273,323.872 306.981,324.619 306.895 C 325.381 306.806,325.639 306.544,325.729 305.767 C 325.819 304.984,326.076 304.727,326.859 304.637 C 327.812 304.527,327.879 304.392,327.985 302.354 L 328.098 300.188 329.397 300.188 C 330.590 300.188,330.697 300.096,330.697 299.058 C 330.697 298.054,330.822 297.928,331.827 297.928 C 332.867 297.928,332.957 297.824,332.957 296.610 C 332.957 295.397,333.046 295.292,334.087 295.292 C 335.091 295.292,335.217 295.166,335.217 294.162 C 335.217 293.158,335.342 293.032,336.347 293.032 C 337.351 293.032,337.476 292.906,337.476 291.902 C 337.476 290.907,337.606 290.772,338.566 290.772 C 339.674 290.772,340.113 290.229,340.113 288.858 C 340.113 288.347,340.377 288.136,341.014 288.136 C 342.082 288.136,342.373 287.524,342.373 285.280 C 342.373 283.682,342.418 283.616,343.503 283.616 C 344.500 283.616,344.633 283.487,344.633 282.516 C 344.633 281.600,344.822 281.374,345.763 281.168 C 346.861 280.926,346.893 280.858,346.893 278.713 L 346.893 276.507 348.117 276.389 C 349.137 276.291,349.361 276.098,349.460 275.235 C 349.543 274.511,349.794 274.200,350.294 274.200 C 351.233 274.200,351.789 273.099,351.789 271.241 C 351.789 269.879,351.894 269.717,352.919 269.492 C 354.018 269.250,354.049 269.182,354.049 267.038 C 354.049 264.913,354.086 264.829,355.085 264.714 C 356.065 264.601,356.127 264.480,356.233 262.429 C 356.329 260.601,356.457 260.264,357.054 260.264 C 358.292 260.264,358.945 259.213,358.945 257.224 C 358.945 255.629,359.050 255.367,359.685 255.367 C 360.798 255.367,361.205 254.214,361.205 251.061 L 361.205 248.211 362.335 248.211 L 363.465 248.211 363.465 244.846 L 363.465 241.481 364.501 241.362 L 365.537 241.243 365.645 237.759 L 365.753 234.275 366.829 234.275 C 368.242 234.275,368.362 233.864,368.362 228.996 L 368.362 224.909 369.397 224.790 L 370.433 224.670 370.536 217.608 L 370.638 210.546 371.760 210.546 L 372.881 210.546 372.881 188.324 L 372.881 166.102 371.760 166.102 L 370.638 166.102 370.536 159.040 L 370.433 151.977 369.397 151.858 L 368.362 151.739 368.362 147.652 C 368.362 142.784,368.242 142.373,366.829 142.373 L 365.753 142.373 365.645 138.889 L 365.537 135.405 364.501 135.286 C 363.472 135.167,363.465 135.148,363.459 132.273 C 363.453 129.086,363.177 128.317,362.107 128.502 C 361.490 128.609,361.378 128.347,361.277 126.558 C 361.208 125.340,360.913 124.219,360.559 123.827 C 360.229 123.462,360.090 123.164,360.251 123.164 C 360.412 123.164,360.335 122.911,360.079 122.603 C 359.823 122.295,359.463 122.135,359.279 122.249 C 359.096 122.362,358.945 122.257,358.945 122.016 C 358.945 121.774,359.194 121.672,359.498 121.789 C 359.802 121.906,360.151 121.839,360.274 121.641 C 360.396 121.443,360.147 121.281,359.721 121.281 C 359.063 121.281,358.945 121.044,358.945 119.721 C 358.945 118.693,358.721 117.978,358.286 117.622 C 357.924 117.325,357.865 117.205,358.156 117.356 C 358.520 117.545,358.595 117.484,358.394 117.160 C 358.235 116.902,357.734 116.761,357.281 116.847 C 356.420 117.012,356.302 116.657,356.170 113.497 C 356.143 112.841,355.966 112.163,355.778 111.990 C 355.574 111.804,355.559 111.906,355.739 112.241 C 355.977 112.684,355.939 112.710,355.565 112.365 C 355.302 112.122,354.854 112.013,354.568 112.122 C 354.089 112.306,353.766 109.680,354.032 107.766 C 354.083 107.402,353.817 107.301,353.143 107.430 C 352.073 107.635,351.757 107.095,351.714 104.991 C 351.680 103.337,351.206 102.525,350.189 102.380 C 349.640 102.302,349.378 102.038,349.445 101.629 C 349.502 101.282,349.349 100.875,349.104 100.724 C 348.808 100.540,348.751 100.625,348.934 100.978 C 349.085 101.269,348.965 101.210,348.668 100.847 C 348.371 100.485,347.850 100.188,347.510 100.188 C 347.086 100.188,346.878 99.835,346.846 99.058 C 346.773 97.327,346.772 97.322,345.669 96.084 C 345.099 95.445,344.633 94.486,344.633 93.953 C 344.633 93.256,344.448 93.003,343.974 93.052 C 342.672 93.184,342.373 93.019,342.373 92.166 C 342.373 91.689,342.161 91.071,341.902 90.792 C 341.525 90.386,341.525 90.338,341.902 90.551 C 342.191 90.714,342.373 90.590,342.373 90.229 C 342.373 89.906,342.209 89.642,342.008 89.642 C 341.807 89.642,341.746 89.375,341.871 89.049 C 342.015 88.672,341.908 88.482,341.577 88.529 C 340.214 88.719,339.782 88.499,339.937 87.693 C 340.143 86.627,339.496 85.876,338.372 85.876 C 337.620 85.876,337.476 85.687,337.476 84.699 C 337.476 83.592,337.409 83.535,336.347 83.748 C 335.205 83.976,334.962 83.573,335.188 81.827 C 335.226 81.540,334.802 81.356,334.103 81.356 C 333.223 81.356,332.946 81.181,332.910 80.603 C 332.884 80.188,332.841 79.637,332.815 79.379 C 332.790 79.120,332.302 78.854,331.733 78.789 C 330.865 78.689,330.697 78.490,330.697 77.564 C 330.697 76.553,330.586 76.460,329.379 76.460 C 328.051 76.460,327.694 75.499,328.026 72.816 C 328.056 72.572,327.906 72.266,327.694 72.134 C 327.481 72.003,327.304 72.117,327.301 72.388 C 327.297 72.747,327.195 72.728,326.925 72.316 C 326.595 71.814,326.512 71.814,326.183 72.316 C 325.896 72.754,325.809 72.626,325.800 71.751 C 325.792 70.882,325.705 70.752,325.424 71.186 C 325.223 71.497,325.056 71.573,325.053 71.356 C 325.050 71.138,325.245 70.763,325.487 70.521 C 326.020 69.988,325.006 69.471,324.105 69.816 C 323.709 69.968,323.539 69.784,323.535 69.197 C 323.523 67.530,322.825 67.162,319.492 67.067 C 318.806 67.048,318.644 66.827,318.644 65.913 C 318.644 64.915,318.516 64.783,317.539 64.783 C 316.614 64.783,316.415 64.615,316.315 63.748 C 316.221 62.934,315.974 62.686,315.160 62.593 C 314.193 62.481,313.860 61.837,314.089 60.518 C 314.119 60.347,313.969 60.315,313.757 60.446 C 313.545 60.577,313.371 60.486,313.371 60.242 C 313.371 59.977,313.006 59.869,312.465 59.972 C 311.698 60.119,311.582 60.017,311.711 59.308 C 311.911 58.205,311.143 57.620,309.410 57.554 C 308.219 57.510,308.094 57.431,308.613 57.052 C 309.664 56.283,308.884 55.147,307.478 55.399 C 306.176 55.632,304.708 55.302,304.708 54.775 C 304.708 54.014,303.801 53.107,303.040 53.107 C 302.715 53.107,302.448 52.853,302.448 52.542 C 302.448 52.232,302.152 51.975,301.789 51.972 C 301.236 51.967,301.219 51.909,301.684 51.615 C 302.394 51.166,301.273 50.640,300.357 50.991 C 299.986 51.134,299.867 51.062,300.032 50.796 C 300.210 50.507,299.864 50.426,298.921 50.536 C 297.562 50.695,297.223 50.199,297.513 48.476 C 297.541 48.310,297.349 48.203,297.087 48.238 C 295.931 48.389,295.292 48.167,295.292 47.615 C 295.292 47.287,295.080 47.096,294.821 47.191 C 294.562 47.286,294.397 47.567,294.454 47.815 C 294.511 48.064,294.383 48.159,294.170 48.028 C 293.909 47.867,293.906 47.559,294.161 47.083 C 294.739 46.003,294.671 45.951,292.685 45.951 C 290.932 45.951,290.819 45.890,290.584 44.821 C 290.447 44.200,290.185 43.691,290.001 43.691 C 289.817 43.691,289.759 43.988,289.873 44.350 C 290.056 44.933,290.022 44.943,289.579 44.434 C 289.303 44.117,288.399 43.805,287.571 43.740 C 285.812 43.601,285.981 43.696,285.817 42.750 C 285.625 41.635,284.736 41.080,283.118 41.067 C 282.326 41.060,281.425 40.800,281.114 40.490 C 280.740 40.116,280.701 39.925,280.998 39.925 C 281.331 39.925,281.321 39.772,280.961 39.338 C 280.694 39.015,280.037 38.779,279.503 38.813 C 276.942 38.975,276.514 38.830,276.390 37.759 C 276.276 36.768,276.171 36.718,273.940 36.612 C 271.720 36.505,271.604 36.452,271.492 35.482 C 271.375 34.469,271.355 34.463,268.017 34.354 C 264.397 34.235,264.046 34.398,264.036 36.199 C 264.033 36.740,263.546 38.096,262.954 39.213 C 262.199 40.636,261.819 41.996,261.681 43.762 C 261.555 45.370,261.201 46.738,260.702 47.547 C 260.271 48.243,259.716 50.076,259.467 51.619 C 259.218 53.163,258.628 55.188,258.155 56.121 C 257.683 57.053,257.113 59.164,256.890 60.812 C 256.626 62.756,256.237 64.078,255.782 64.578 C 255.323 65.082,254.924 66.454,254.628 68.550 C 254.378 70.311,253.853 72.275,253.460 72.914 C 253.067 73.553,252.577 75.266,252.371 76.720 C 251.946 79.711,251.700 80.541,250.987 81.376 C 250.713 81.698,250.294 83.308,250.057 84.954 C 249.819 86.600,249.306 88.540,248.915 89.266 C 248.525 89.991,247.967 91.978,247.675 93.682 C 247.384 95.386,246.823 97.251,246.430 97.825 C 246.036 98.400,245.497 100.226,245.233 101.883 C 244.968 103.540,244.426 105.428,244.029 106.077 C 243.632 106.726,243.148 108.511,242.954 110.044 C 242.570 113.070,242.311 114.010,241.621 114.878 C 241.374 115.188,240.880 116.194,240.524 117.112 C 240.167 118.031,239.463 119.272,238.959 119.872 C 238.454 120.471,238.041 121.190,238.041 121.469 C 238.041 121.748,237.649 122.455,237.169 123.041 C 236.689 123.626,236.068 124.699,235.790 125.424 C 235.512 126.149,234.910 127.166,234.452 127.684 C 233.994 128.202,233.508 129.096,233.372 129.671 C 233.237 130.246,232.808 131.033,232.420 131.421 C 232.032 131.810,231.491 132.745,231.218 133.500 C 230.945 134.255,230.414 135.204,230.038 135.607 C 229.662 136.011,229.027 137.105,228.626 138.039 C 228.226 138.972,227.746 139.736,227.560 139.736 C 227.373 139.736,226.936 140.483,226.588 141.395 C 226.239 142.307,225.538 143.502,225.030 144.051 C 224.521 144.599,224.105 145.274,224.105 145.551 C 224.105 146.234,223.283 147.769,222.495 148.557 C 222.138 148.914,221.736 149.659,221.601 150.215 C 221.465 150.770,220.986 151.668,220.536 152.210 C 220.087 152.752,219.485 153.769,219.200 154.470 C 218.915 155.171,218.399 155.950,218.054 156.201 C 217.708 156.453,217.326 157.131,217.204 157.708 C 217.082 158.285,216.483 159.332,215.872 160.036 C 215.261 160.739,214.666 161.793,214.549 162.378 C 214.432 162.963,213.998 163.780,213.585 164.193 C 213.171 164.606,212.446 165.696,211.972 166.614 C 211.499 167.533,210.687 169.107,210.169 170.112 C 209.652 171.117,208.938 172.156,208.584 172.421 C 208.230 172.686,207.832 173.475,207.701 174.174 C 207.570 174.872,206.970 175.916,206.368 176.493 C 205.766 177.070,205.273 177.830,205.273 178.183 C 205.273 178.535,204.680 179.686,203.955 180.740 C 203.230 181.794,202.637 182.894,202.637 183.184 C 202.637 183.474,202.359 183.942,202.020 184.223 C 201.681 184.505,201.076 185.500,200.676 186.435 C 200.277 187.370,199.645 188.475,199.274 188.889 C 198.902 189.303,198.401 190.231,198.159 190.950 C 197.918 191.669,197.323 192.686,196.838 193.210 C 196.352 193.733,195.851 194.600,195.726 195.135 C 195.600 195.671,194.985 196.753,194.359 197.541 C 193.733 198.329,193.220 199.192,193.220 199.458 C 193.220 199.724,192.828 200.421,192.348 201.007 C 191.868 201.592,191.251 202.665,190.977 203.390 C 190.704 204.115,190.202 204.962,189.862 205.273 C 189.522 205.584,188.944 206.628,188.577 207.594 C 188.210 208.560,187.674 209.441,187.385 209.551 C 187.096 209.662,186.659 210.421,186.415 211.238 C 186.170 212.054,185.483 213.292,184.888 213.988 C 184.293 214.685,183.806 215.530,183.805 215.867 C 183.805 216.204,183.532 216.706,183.199 216.982 C 182.867 217.258,182.175 218.338,181.663 219.382 C 179.652 223.477,178.653 225.246,177.883 226.071 C 177.441 226.543,176.958 227.439,176.807 228.060 C 176.657 228.682,176.052 229.747,175.461 230.427 C 174.871 231.108,174.388 231.900,174.388 232.188 C 174.388 232.475,173.995 233.190,173.515 233.775 C 173.035 234.361,172.415 235.433,172.136 236.158 C 171.857 236.883,171.311 237.834,170.922 238.270 C 170.533 238.706,170.117 239.664,169.998 240.399 C 169.879 241.134,169.292 242.270,168.695 242.925 C 168.097 243.579,167.608 244.451,167.608 244.861 C 167.608 245.272,167.197 246.020,166.695 246.522 C 166.193 247.024,165.560 248.048,165.289 248.798 C 165.018 249.548,164.510 250.315,164.161 250.501 C 163.812 250.688,163.412 251.364,163.271 252.002 C 163.131 252.641,162.536 253.711,161.948 254.380 C 161.361 255.049,160.769 256.037,160.634 256.575 C 160.499 257.113,160.022 257.946,159.573 258.426 C 159.124 258.906,158.469 259.940,158.116 260.723 C 157.764 261.506,157.250 262.147,156.974 262.147 C 156.699 262.147,156.241 262.933,155.958 263.894 C 155.674 264.855,155.044 265.987,154.557 266.410 C 154.070 266.833,153.672 267.475,153.672 267.836 C 153.672 268.197,153.246 268.998,152.726 269.617 C 152.205 270.236,151.527 271.345,151.220 272.081 C 150.912 272.817,150.321 273.601,149.906 273.823 C 149.492 274.045,149.153 274.533,149.153 274.908 C 149.153 275.841,148.050 277.979,147.450 278.209 C 147.181 278.313,146.850 278.851,146.715 279.406 C 146.579 279.960,145.971 281.040,145.362 281.805 C 144.754 282.569,144.256 283.467,144.256 283.799 C 144.256 284.131,143.848 284.811,143.350 285.310 C 142.851 285.808,142.236 286.860,141.982 287.647 C 141.360 289.578,141.053 289.900,139.562 290.180 C 138.859 290.311,138.209 290.626,138.116 290.878 C 137.358 292.940,136.773 289.442,137.248 285.687 C 137.877 280.710,138.258 274.453,138.647 262.712 C 138.940 253.872,139.215 249.673,139.537 249.153 C 139.832 248.674,140.100 245.848,140.272 241.397 C 140.566 233.781,140.805 232.155,141.864 230.594 C 142.362 229.860,142.641 228.490,142.839 225.800 C 142.992 223.729,143.284 219.915,143.487 217.326 C 143.691 214.736,144.008 207.957,144.192 202.260 C 144.377 196.497,144.716 191.318,144.956 190.586 C 145.192 189.863,145.386 188.235,145.386 186.970 C 145.386 185.705,145.544 184.178,145.738 183.578 C 145.931 182.977,146.288 176.215,146.531 168.550 C 146.774 160.885,147.124 154.453,147.309 154.256 C 147.495 154.059,147.649 152.958,147.653 151.808 C 147.656 150.658,147.915 148.192,148.227 146.328 C 148.610 144.045,148.871 138.816,149.025 130.320 C 149.167 122.508,149.408 117.416,149.658 116.949 C 150.892 114.648,151.713 91.346,150.759 85.687 C 150.425 83.707,150.712 81.804,151.582 80.221 C 151.869 79.701,152.371 77.863,152.698 76.138 C 153.025 74.413,153.530 72.466,153.819 71.811 C 154.610 70.023,154.760 69.474,155.174 66.884 C 155.383 65.576,155.874 63.763,156.265 62.855 C 156.655 61.948,157.181 60.019,157.433 58.569 C 157.684 57.119,158.297 54.886,158.795 53.608 C 159.292 52.330,159.704 50.804,159.711 50.218 C 159.718 49.632,160.068 48.220,160.490 47.081 C 160.911 45.942,161.594 43.488,162.007 41.627 C 162.420 39.767,163.045 37.649,163.394 36.919 C 163.827 36.016,164.030 34.633,164.030 32.580 L 164.030 29.567 162.887 29.455 C 162.258 29.393,161.622 29.464,161.474 29.612 M360.555 122.779 C 360.586 123.198,360.746 123.540,360.909 123.540 C 361.325 123.540,361.280 122.501,360.851 122.236 C 360.657 122.116,360.523 122.360,360.555 122.779 " stroke="none" fill="#f9f9f9" fill-rule="evenodd"></path><path id="path3" d="M188.887 25.377 C 188.234 26.115,188.448 27.307,189.233 27.307 C 189.755 27.307,189.965 27.024,189.998 26.280 C 190.047 25.162,189.483 24.703,188.887 25.377 M164.030 32.487 C 164.030 34.627,163.832 36.006,163.394 36.919 C 163.045 37.649,162.420 39.767,162.007 41.627 C 161.594 43.488,160.911 45.942,160.490 47.081 C 160.068 48.220,159.718 49.632,159.711 50.218 C 159.704 50.804,159.292 52.330,158.795 53.608 C 158.297 54.886,157.684 57.119,157.433 58.569 C 157.181 60.019,156.655 61.948,156.265 62.855 C 155.874 63.763,155.383 65.576,155.174 66.884 C 154.760 69.474,154.610 70.023,153.819 71.811 C 153.530 72.466,153.025 74.413,152.698 76.138 C 152.371 77.863,151.869 79.701,151.582 80.221 C 150.712 81.804,150.425 83.707,150.759 85.687 C 151.713 91.346,150.892 114.648,149.658 116.949 C 149.408 117.416,149.167 122.508,149.025 130.320 C 148.871 138.816,148.610 144.045,148.227 146.328 C 147.915 148.192,147.656 150.658,147.653 151.808 C 147.649 152.958,147.495 154.059,147.309 154.256 C 147.124 154.453,146.774 160.885,146.531 168.550 C 146.288 176.215,145.931 182.977,145.738 183.578 C 145.544 184.178,145.386 185.705,145.386 186.970 C 145.386 188.235,145.192 189.863,144.956 190.586 C 144.716 191.318,144.377 196.497,144.192 202.260 C 144.008 207.957,143.690 214.736,143.484 217.326 C 143.278 219.915,143.017 223.696,142.904 225.727 C 142.733 228.811,142.547 229.643,141.782 230.770 C 141.279 231.513,140.866 232.473,140.866 232.905 C 140.866 233.677,140.875 233.676,141.453 232.852 C 142.188 231.803,148.617 231.685,154.426 232.614 C 160.048 233.513,159.675 233.580,160.936 231.450 C 161.550 230.414,162.292 228.719,162.586 227.684 C 162.880 226.648,163.438 225.207,163.826 224.482 C 164.213 223.757,164.650 222.486,164.796 221.657 C 164.942 220.829,165.532 219.303,166.108 218.267 C 166.683 217.232,167.270 215.669,167.412 214.795 C 167.554 213.920,167.971 212.819,168.338 212.346 C 168.705 211.874,169.221 210.576,169.486 209.462 C 169.750 208.348,170.366 206.738,170.854 205.884 C 171.343 205.030,171.744 204.039,171.747 203.682 C 171.749 203.324,172.238 201.968,172.832 200.669 C 173.427 199.369,174.036 197.712,174.187 196.987 C 174.338 196.262,174.765 195.139,175.137 194.491 C 175.509 193.844,176.102 192.323,176.454 191.113 C 176.806 189.902,177.392 188.313,177.757 187.582 C 178.121 186.851,178.627 185.405,178.880 184.369 C 179.134 183.333,179.575 182.227,179.861 181.910 C 180.147 181.593,180.640 180.338,180.957 179.122 C 181.274 177.905,181.780 176.533,182.081 176.073 C 182.382 175.613,182.908 174.156,183.248 172.835 C 183.589 171.514,184.113 170.160,184.413 169.825 C 184.713 169.491,185.277 168.135,185.667 166.812 C 186.057 165.489,186.730 163.735,187.162 162.915 C 187.594 162.094,187.947 161.043,187.947 160.578 C 187.947 159.658,188.593 157.956,189.281 157.062 C 189.520 156.751,189.934 155.650,190.200 154.614 C 190.466 153.578,190.981 152.202,191.345 151.556 C 191.709 150.910,192.202 149.469,192.441 148.354 C 192.679 147.240,193.267 145.734,193.747 145.009 C 194.228 144.284,194.823 142.733,195.069 141.561 C 195.316 140.390,195.834 139.067,196.220 138.622 C 196.606 138.177,197.039 136.932,197.182 135.856 C 197.333 134.722,197.759 133.553,198.196 133.078 C 198.611 132.627,199.192 131.107,199.487 129.700 C 199.782 128.294,200.355 126.789,200.762 126.356 C 201.168 125.923,201.612 124.761,201.747 123.773 C 201.883 122.785,202.406 121.369,202.910 120.627 C 203.413 119.884,203.977 118.345,204.163 117.206 C 204.348 116.068,204.829 114.781,205.231 114.348 C 205.633 113.914,206.173 112.473,206.432 111.144 C 206.696 109.788,207.220 108.411,207.627 108.004 C 209.609 106.022,209.084 100.467,206.867 99.968 C 203.842 99.287,202.912 98.957,202.305 98.351 C 201.938 97.983,200.593 97.461,199.317 97.190 C 198.041 96.919,196.453 96.297,195.788 95.806 C 195.124 95.316,194.172 94.915,193.672 94.915 C 193.172 94.915,191.677 94.397,190.349 93.763 C 189.021 93.129,186.968 92.359,185.786 92.051 C 184.605 91.743,183.379 91.265,183.062 90.989 C 181.536 89.657,179.725 89.123,175.848 88.861 C 173.647 88.712,171.474 88.390,171.019 88.147 C 169.313 87.234,166.127 86.698,160.829 86.433 C 157.407 86.262,155.108 85.979,154.674 85.676 C 153.517 84.868,152.812 83.636,153.215 83.129 C 153.414 82.879,153.695 81.234,153.839 79.473 C 154.047 76.918,154.252 76.153,154.850 75.688 C 155.752 74.986,156.288 72.887,156.300 70.008 C 156.306 68.504,156.490 67.739,156.932 67.372 C 157.975 66.507,158.569 64.557,158.569 62.000 C 158.569 59.941,158.716 59.393,159.532 58.423 C 160.325 57.481,160.568 56.635,160.908 53.643 C 161.234 50.778,161.498 49.817,162.156 49.107 C 162.837 48.372,163.042 47.563,163.263 44.735 C 163.479 41.972,163.678 41.165,164.239 40.772 C 165.169 40.121,165.720 38.019,165.723 35.117 C 165.724 33.820,165.919 32.447,166.157 32.067 C 166.884 30.902,166.262 29.378,165.059 29.379 L 164.030 29.380 164.030 32.487 M262.976 34.727 C 262.727 34.976,262.524 35.559,262.524 36.023 C 262.524 36.487,262.383 36.954,262.211 37.060 C 262.040 37.166,261.690 38.236,261.434 39.436 C 260.797 42.425,260.067 45.083,259.363 46.969 C 259.039 47.839,258.619 49.450,258.430 50.547 C 258.242 51.644,257.745 53.390,257.326 54.426 C 256.908 55.461,256.367 57.401,256.124 58.737 C 255.882 60.072,255.376 61.769,254.999 62.507 C 254.622 63.246,254.189 64.865,254.035 66.106 C 253.882 67.346,253.365 69.222,252.886 70.274 C 252.407 71.326,251.849 73.215,251.647 74.472 C 251.444 75.730,250.934 77.581,250.512 78.586 C 250.090 79.592,249.502 81.685,249.204 83.239 C 248.905 84.793,248.321 86.911,247.905 87.947 C 247.489 88.983,246.951 90.923,246.708 92.258 C 246.466 93.594,245.962 95.289,245.589 96.025 C 245.216 96.761,244.790 98.296,244.643 99.435 C 244.496 100.574,243.969 102.384,243.471 103.455 C 242.973 104.527,242.414 106.481,242.227 107.796 C 242.041 109.112,241.447 111.239,240.907 112.522 C 240.367 113.805,239.925 115.336,239.925 115.923 C 239.925 116.510,239.487 117.575,238.953 118.288 C 238.419 119.002,237.722 120.221,237.406 120.998 C 237.089 121.775,236.699 122.411,236.540 122.411 C 236.381 122.411,235.891 123.248,235.450 124.272 C 235.010 125.296,234.461 126.250,234.232 126.392 C 234.002 126.534,233.404 127.518,232.902 128.579 C 232.400 129.640,231.402 131.483,230.684 132.674 C 229.966 133.865,228.791 135.815,228.073 137.006 C 227.355 138.197,226.357 140.040,225.855 141.101 C 225.353 142.162,224.757 143.145,224.530 143.285 C 224.303 143.425,223.711 144.337,223.216 145.311 C 221.204 149.263,220.491 150.554,219.729 151.616 C 219.290 152.229,218.813 153.111,218.669 153.576 C 218.524 154.041,218.181 154.646,217.907 154.921 C 217.632 155.196,216.968 156.287,216.432 157.345 C 215.896 158.403,215.275 159.381,215.053 159.518 C 214.831 159.656,214.223 160.642,213.703 161.711 C 212.035 165.136,211.126 166.762,210.484 167.476 C 210.138 167.860,209.569 168.894,209.219 169.774 C 208.868 170.654,208.451 171.375,208.292 171.375 C 208.133 171.375,207.656 172.180,207.232 173.165 C 206.809 174.150,206.030 175.458,205.503 176.072 C 204.975 176.686,204.445 177.637,204.325 178.185 C 204.204 178.734,203.775 179.537,203.371 179.971 C 202.967 180.405,202.637 180.907,202.637 181.087 C 202.637 181.268,202.105 182.217,201.456 183.197 C 200.114 185.223,198.956 187.285,197.615 190.034 C 197.106 191.078,196.426 192.151,196.104 192.418 C 195.782 192.685,195.316 193.526,195.068 194.286 C 194.821 195.047,194.230 196.134,193.757 196.702 C 193.283 197.271,192.780 198.118,192.639 198.586 C 192.498 199.053,192.005 199.859,191.543 200.377 C 191.082 200.895,190.480 201.911,190.206 202.637 C 189.933 203.362,189.428 204.294,189.086 204.708 C 188.743 205.122,188.152 206.182,187.771 207.062 C 187.391 207.943,186.948 208.663,186.788 208.663 C 186.627 208.663,186.049 209.553,185.503 210.640 C 183.531 214.568,182.700 216.021,182.000 216.761 C 181.608 217.175,181.063 218.107,180.789 218.832 C 180.515 219.557,180.083 220.405,179.830 220.716 C 179.577 221.026,178.885 222.181,178.292 223.281 C 175.846 227.817,175.528 228.367,175.007 228.954 C 174.708 229.291,174.191 230.226,173.858 231.032 C 173.525 231.837,172.940 232.769,172.558 233.103 C 172.176 233.437,171.629 234.388,171.343 235.217 C 171.056 236.045,170.417 237.116,169.922 237.596 C 169.178 238.316,169.057 238.727,169.223 239.961 C 169.385 241.170,169.250 241.661,168.516 242.533 C 167.239 244.050,167.382 244.362,168.695 242.925 C 169.292 242.270,169.879 241.134,169.998 240.399 C 170.117 239.664,170.533 238.706,170.922 238.270 C 171.311 237.834,171.857 236.883,172.136 236.158 C 172.415 235.433,173.035 234.361,173.515 233.775 C 173.995 233.190,174.388 232.475,174.388 232.188 C 174.388 231.900,174.871 231.108,175.461 230.427 C 176.052 229.747,176.657 228.682,176.807 228.060 C 176.958 227.439,177.441 226.543,177.883 226.071 C 178.653 225.246,179.652 223.477,181.663 219.382 C 182.175 218.338,182.867 217.258,183.199 216.982 C 183.532 216.706,183.805 216.204,183.805 215.867 C 183.806 215.530,184.293 214.685,184.888 213.988 C 185.483 213.292,186.170 212.054,186.415 211.238 C 186.659 210.421,187.096 209.662,187.385 209.551 C 187.674 209.441,188.210 208.560,188.577 207.594 C 188.944 206.628,189.522 205.584,189.862 205.273 C 190.202 204.962,190.704 204.115,190.977 203.390 C 191.251 202.665,191.868 201.592,192.348 201.007 C 192.828 200.421,193.220 199.724,193.220 199.458 C 193.220 199.192,193.733 198.329,194.359 197.541 C 194.985 196.753,195.600 195.671,195.726 195.135 C 195.851 194.600,196.352 193.733,196.838 193.210 C 197.323 192.686,197.918 191.669,198.159 190.950 C 198.401 190.231,198.902 189.303,199.274 188.889 C 199.645 188.475,200.277 187.370,200.676 186.435 C 201.076 185.500,201.681 184.505,202.020 184.223 C 202.359 183.942,202.637 183.474,202.637 183.184 C 202.637 182.894,203.230 181.794,203.955 180.740 C 204.680 179.686,205.273 178.535,205.273 178.183 C 205.273 177.830,205.766 177.070,206.368 176.493 C 206.970 175.916,207.570 174.872,207.701 174.174 C 207.832 173.475,208.230 172.686,208.584 172.421 C 208.938 172.156,209.652 171.117,210.169 170.112 C 210.687 169.107,211.499 167.533,211.972 166.614 C 212.446 165.696,213.171 164.606,213.585 164.193 C 213.998 163.780,214.432 162.963,214.549 162.378 C 214.666 161.793,215.261 160.739,215.872 160.036 C 216.483 159.332,217.082 158.285,217.204 157.708 C 217.326 157.131,217.708 156.453,218.054 156.201 C 218.399 155.950,218.915 155.171,219.200 154.470 C 219.485 153.769,220.087 152.752,220.536 152.210 C 220.986 151.668,221.465 150.770,221.601 150.215 C 221.736 149.659,222.138 148.914,222.495 148.557 C 223.283 147.769,224.105 146.234,224.105 145.551 C 224.105 145.274,224.521 144.599,225.030 144.051 C 225.538 143.502,226.239 142.307,226.588 141.395 C 226.936 140.483,227.373 139.736,227.560 139.736 C 227.746 139.736,228.226 138.972,228.626 138.039 C 229.027 137.105,229.662 136.011,230.038 135.607 C 230.414 135.204,230.945 134.255,231.218 133.500 C 231.491 132.745,232.032 131.810,232.420 131.421 C 232.808 131.033,233.237 130.246,233.372 129.671 C 233.508 129.096,233.994 128.202,234.452 127.684 C 234.910 127.166,235.512 126.149,235.790 125.424 C 236.068 124.699,236.689 123.626,237.169 123.041 C 237.649 122.455,238.041 121.748,238.041 121.469 C 238.041 121.190,238.454 120.471,238.959 119.872 C 239.463 119.272,240.167 118.031,240.524 117.112 C 240.880 116.194,241.374 115.188,241.621 114.878 C 242.311 114.010,242.570 113.070,242.954 110.044 C 243.148 108.511,243.632 106.726,244.029 106.077 C 244.426 105.428,244.968 103.540,245.233 101.883 C 245.497 100.226,246.036 98.400,246.430 97.825 C 246.823 97.251,247.384 95.386,247.675 93.682 C 247.967 91.978,248.525 89.991,248.915 89.266 C 249.306 88.540,249.819 86.600,250.057 84.954 C 250.294 83.308,250.713 81.698,250.987 81.376 C 251.700 80.541,251.946 79.711,252.371 76.720 C 252.577 75.266,253.067 73.553,253.460 72.914 C 253.853 72.275,254.378 70.311,254.628 68.550 C 254.924 66.454,255.323 65.082,255.782 64.578 C 256.237 64.078,256.626 62.756,256.890 60.812 C 257.113 59.164,257.683 57.053,258.155 56.121 C 258.628 55.188,259.218 53.163,259.467 51.619 C 259.716 50.076,260.271 48.243,260.702 47.547 C 261.200 46.740,261.556 45.366,261.683 43.762 C 261.817 42.071,262.225 40.562,262.924 39.171 C 264.603 35.833,264.635 33.068,262.976 34.727 M140.621 236.911 C 140.621 238.672,140.686 239.393,140.765 238.512 C 140.845 237.632,140.845 236.191,140.765 235.311 C 140.686 234.430,140.621 235.151,140.621 236.911 M167.232 245.064 C 167.232 245.267,166.886 245.803,166.464 246.257 C 166.041 246.710,165.868 247.081,166.078 247.081 C 166.584 247.081,167.778 245.242,167.471 244.935 C 167.339 244.803,167.232 244.861,167.232 245.064 M139.438 249.214 C 139.064 249.936,137.978 275.892,138.284 276.810 C 138.380 277.099,138.681 271.249,138.953 263.809 C 139.225 256.369,139.610 249.971,139.810 249.591 C 140.010 249.211,140.089 248.815,139.986 248.711 C 139.882 248.608,139.636 248.834,139.438 249.214 M162.712 252.639 C 162.712 252.865,162.252 253.613,161.689 254.303 C 160.848 255.333,160.821 255.422,161.536 254.806 C 162.551 253.932,163.244 252.760,162.931 252.447 C 162.810 252.327,162.712 252.413,162.712 252.639 M159.389 258.052 C 158.907 258.646,158.741 259.044,159.020 258.937 C 159.528 258.742,160.609 257.266,160.384 257.075 C 160.318 257.019,159.870 257.459,159.389 258.052 M154.455 266.007 C 153.605 267.054,153.598 267.096,154.354 266.624 C 155.079 266.171,155.740 265.190,155.470 264.967 C 155.414 264.921,154.957 265.388,154.455 266.007 M152.988 268.738 C 152.752 269.256,152.385 269.680,152.174 269.680 C 151.962 269.680,151.794 269.892,151.801 270.151 C 151.814 270.685,153.672 268.701,153.672 268.152 C 153.672 267.551,153.436 267.753,152.988 268.738 M147.460 277.587 C 147.084 278.003,146.951 278.343,147.165 278.343 C 147.639 278.343,148.578 277.266,148.325 277.013 C 148.225 276.913,147.836 277.172,147.460 277.587 M137.940 279.473 C 137.940 280.198,138.018 280.494,138.113 280.132 C 138.207 279.769,138.207 279.176,138.113 278.814 C 138.018 278.451,137.940 278.748,137.940 279.473 M145.574 280.900 C 144.573 282.198,144.178 282.863,144.407 282.863 C 144.693 282.863,146.642 280.225,146.474 280.064 C 146.394 279.987,145.989 280.363,145.574 280.900 M137.366 284.181 C 136.904 289.407,136.911 290.358,137.416 290.863 C 137.768 291.214,137.952 291.222,138.155 290.893 C 138.304 290.652,138.932 290.334,139.552 290.185 C 140.840 289.876,141.620 289.348,141.620 288.784 C 141.620 288.570,141.323 288.646,140.960 288.951 C 138.575 290.963,136.397 289.989,137.473 287.392 C 137.702 286.839,137.838 285.128,137.777 283.589 L 137.665 280.791 137.366 284.181 M143.879 283.789 C 143.879 284.091,143.467 284.727,142.962 285.201 C 142.458 285.676,141.948 286.573,141.830 287.194 L 141.615 288.324 142.033 287.267 C 142.262 286.685,142.856 285.803,143.353 285.306 C 144.149 284.511,144.588 283.239,144.068 283.239 C 143.964 283.239,143.879 283.487,143.879 283.789 " stroke="none" fill="#e1baa7" fill-rule="evenodd"></path><path id="path4" d="M239.599 115.667 C 239.571 115.997,239.184 116.590,238.740 116.985 C 238.296 117.380,237.625 118.389,237.250 119.227 C 236.874 120.066,236.221 121.151,235.798 121.639 C 235.374 122.127,235.027 122.796,235.025 123.127 C 235.023 123.458,234.429 124.473,233.706 125.383 C 232.983 126.292,232.392 127.321,232.392 127.669 C 232.392 128.017,231.900 128.852,231.299 129.525 C 230.698 130.199,230.097 131.329,229.964 132.037 C 229.831 132.745,229.405 133.494,229.016 133.703 C 228.627 133.911,228.110 134.684,227.867 135.421 C 227.623 136.158,227.017 137.201,226.518 137.739 C 226.020 138.276,225.612 139.015,225.612 139.379 C 225.612 139.744,225.019 140.752,224.294 141.620 C 223.569 142.487,222.976 143.563,222.976 144.010 C 222.976 144.458,222.473 145.298,221.859 145.877 C 221.239 146.463,220.633 147.513,220.497 148.240 C 220.362 148.960,219.946 149.713,219.572 149.913 C 219.198 150.113,218.689 150.914,218.440 151.692 C 218.192 152.470,217.607 153.531,217.141 154.049 C 216.674 154.567,216.182 155.462,216.046 156.038 C 215.910 156.613,215.373 157.455,214.853 157.908 C 214.332 158.360,213.723 159.457,213.500 160.345 C 213.276 161.232,212.878 161.959,212.616 161.959 C 212.055 161.959,210.923 164.183,210.923 165.286 C 210.923 165.707,210.610 166.150,210.227 166.272 C 209.564 166.482,208.663 167.939,208.663 168.800 C 208.663 169.022,208.154 169.783,207.533 170.491 C 206.911 171.199,206.403 172.112,206.403 172.520 C 206.403 172.929,205.977 173.633,205.456 174.086 C 204.936 174.539,204.328 175.584,204.106 176.409 C 203.884 177.233,203.293 178.230,202.793 178.624 C 202.238 179.060,201.794 179.900,201.653 180.778 C 201.495 181.765,201.081 182.470,200.335 183.022 C 199.736 183.465,199.247 184.181,199.247 184.613 C 199.247 185.046,198.738 185.979,198.117 186.687 C 197.495 187.394,196.987 188.281,196.987 188.658 C 196.987 189.034,196.488 189.864,195.879 190.501 C 195.270 191.139,194.661 192.245,194.527 192.960 C 194.375 193.772,193.955 194.434,193.407 194.728 C 192.532 195.196,192.105 196.119,192.096 197.565 C 192.093 198.013,191.622 198.608,190.960 198.998 C 190.129 199.490,189.831 199.947,189.831 200.731 C 189.831 201.453,189.526 201.996,188.884 202.417 C 188.296 202.802,187.770 203.664,187.495 204.694 C 187.216 205.735,186.733 206.522,186.196 206.810 C 185.584 207.137,185.269 207.743,185.090 208.934 C 184.903 210.183,184.629 210.681,183.997 210.921 C 183.131 211.250,182.674 212.010,182.674 213.121 C 182.674 213.467,182.176 214.220,181.567 214.795 C 180.884 215.440,180.416 216.304,180.343 217.053 C 180.255 217.967,180.024 218.296,179.408 218.384 C 178.547 218.507,177.778 220.078,177.778 221.713 C 177.778 222.230,177.553 222.599,177.240 222.599 C 176.461 222.599,175.518 223.661,175.518 224.538 C 175.518 224.953,175.020 225.791,174.411 226.400 C 173.753 227.058,173.257 227.994,173.187 228.710 C 173.097 229.639,172.855 229.963,172.128 230.130 C 171.335 230.311,171.131 230.656,170.835 232.310 C 170.621 233.507,170.290 234.275,169.988 234.275 C 169.246 234.275,169.305 227.297,170.059 225.851 C 170.381 225.233,170.621 223.777,170.621 222.439 C 170.621 220.971,170.826 219.835,171.174 219.375 C 171.551 218.877,171.731 217.680,171.739 215.621 C 171.748 213.510,171.928 212.344,172.338 211.760 C 172.874 210.994,172.870 210.923,172.292 210.923 C 171.803 210.923,171.755 210.807,172.082 210.413 C 172.315 210.133,172.618 208.567,172.756 206.934 C 172.952 204.618,173.953 201.730,174.026 203.269 C 174.077 204.333,175.141 200.756,175.141 199.521 C 175.141 198.487,175.437 197.612,176.063 196.791 C 176.612 196.072,177.088 194.803,177.240 193.657 C 177.383 192.582,177.878 191.213,178.362 190.557 C 178.868 189.871,179.423 188.295,179.696 186.767 C 179.953 185.328,180.474 183.793,180.854 183.355 C 181.677 182.406,181.532 182.776,181.783 180.979 C 181.899 180.151,182.368 178.710,182.826 177.778 C 183.284 176.846,183.880 175.077,184.151 173.848 C 184.421 172.618,184.871 171.384,185.151 171.104 C 185.663 170.592,186.433 168.278,186.440 167.232 C 186.442 166.921,186.790 166.099,187.213 165.405 C 187.636 164.711,188.244 163.100,188.563 161.827 C 188.883 160.553,189.443 158.992,189.809 158.359 C 190.174 157.726,190.598 156.539,190.751 155.722 C 190.904 154.906,191.421 153.390,191.901 152.354 C 192.381 151.318,192.895 149.878,193.043 149.153 C 193.191 148.427,193.607 147.241,193.968 146.516 C 194.329 145.791,194.909 144.266,195.257 143.126 C 195.606 141.987,196.204 140.377,196.586 139.548 C 196.969 138.719,197.479 137.194,197.721 136.158 C 197.963 135.122,198.405 133.783,198.703 133.181 C 199.455 131.668,199.388 131.601,198.352 132.834 C 197.802 133.489,197.355 134.650,197.190 135.856 C 197.042 136.932,196.606 138.177,196.220 138.622 C 195.834 139.067,195.316 140.390,195.069 141.561 C 194.823 142.733,194.228 144.284,193.747 145.009 C 193.267 145.734,192.679 147.240,192.441 148.354 C 192.202 149.469,191.709 150.910,191.345 151.556 C 190.981 152.202,190.466 153.578,190.200 154.614 C 189.934 155.650,189.520 156.751,189.281 157.062 C 188.593 157.956,187.947 159.658,187.947 160.578 C 187.947 161.043,187.594 162.094,187.162 162.915 C 186.730 163.735,186.057 165.489,185.667 166.812 C 185.277 168.135,184.713 169.491,184.413 169.825 C 184.113 170.160,183.589 171.514,183.248 172.835 C 182.908 174.156,182.382 175.613,182.081 176.073 C 181.780 176.533,181.274 177.905,180.957 179.122 C 180.640 180.338,180.147 181.593,179.861 181.910 C 179.575 182.227,179.134 183.333,178.880 184.369 C 178.627 185.405,178.121 186.851,177.757 187.582 C 177.392 188.313,176.806 189.902,176.454 191.113 C 176.102 192.323,175.509 193.844,175.137 194.491 C 174.765 195.139,174.338 196.262,174.187 196.987 C 174.036 197.712,173.427 199.369,172.832 200.669 C 172.238 201.968,171.749 203.324,171.747 203.682 C 171.744 204.039,171.343 205.030,170.854 205.884 C 170.366 206.738,169.750 208.348,169.486 209.462 C 169.221 210.576,168.705 211.874,168.338 212.346 C 167.971 212.819,167.554 213.920,167.412 214.795 C 167.270 215.669,166.683 217.232,166.108 218.267 C 165.532 219.303,164.942 220.829,164.796 221.657 C 164.650 222.486,164.213 223.757,163.826 224.482 C 163.438 225.207,162.880 226.648,162.586 227.684 C 162.292 228.719,161.550 230.414,160.936 231.450 C 159.675 233.580,160.048 233.513,154.426 232.614 C 149.345 231.801,142.256 231.814,141.572 232.636 C 141.268 233.001,140.938 234.751,140.772 236.873 C 140.128 245.130,139.751 249.636,139.556 251.412 C 139.443 252.448,139.079 259.313,138.749 266.667 C 138.004 283.225,137.750 287.063,137.354 287.674 C 137.184 287.938,137.151 288.640,137.281 289.233 C 137.720 291.230,141.335 289.583,141.786 287.180 C 141.918 286.475,142.340 285.678,142.723 285.410 C 143.106 285.141,143.690 284.274,144.021 283.482 C 144.352 282.690,145.049 281.536,145.569 280.917 C 146.090 280.298,146.516 279.574,146.516 279.307 C 146.516 279.041,147.013 278.198,147.620 277.433 C 148.228 276.669,148.831 275.558,148.962 274.965 C 149.092 274.371,149.438 273.794,149.731 273.681 C 150.024 273.569,150.640 272.665,151.099 271.673 C 151.558 270.680,152.133 269.745,152.377 269.595 C 152.621 269.444,153.039 268.766,153.307 268.088 C 153.575 267.410,154.094 266.516,154.461 266.102 C 154.828 265.687,155.473 264.543,155.893 263.559 C 156.314 262.575,156.832 261.770,157.044 261.770 C 157.255 261.770,157.683 261.162,157.994 260.418 C 158.304 259.675,158.984 258.560,159.505 257.941 C 160.026 257.322,160.452 256.588,160.452 256.309 C 160.452 256.030,160.872 255.302,161.386 254.692 C 161.900 254.081,162.657 252.797,163.068 251.838 C 163.479 250.879,163.977 250.094,164.176 250.094 C 164.374 250.094,164.727 249.519,164.959 248.816 C 165.191 248.113,165.801 247.053,166.316 246.462 C 166.830 245.870,167.357 244.962,167.487 244.444 C 167.617 243.927,168.105 243.042,168.573 242.479 C 169.248 241.666,169.382 241.147,169.223 239.961 C 169.057 238.727,169.178 238.316,169.922 237.596 C 170.417 237.116,171.056 236.045,171.343 235.217 C 171.629 234.388,172.176 233.437,172.558 233.103 C 172.940 232.769,173.525 231.837,173.858 231.032 C 174.191 230.226,174.708 229.291,175.007 228.954 C 175.528 228.367,175.846 227.817,178.292 223.281 C 178.885 222.181,179.577 221.026,179.830 220.716 C 180.083 220.405,180.515 219.557,180.789 218.832 C 181.063 218.107,181.608 217.175,182.000 216.761 C 182.700 216.021,183.531 214.568,185.503 210.640 C 186.049 209.553,186.627 208.663,186.788 208.663 C 186.948 208.663,187.391 207.943,187.771 207.062 C 188.152 206.182,188.743 205.122,189.086 204.708 C 189.428 204.294,189.933 203.362,190.206 202.637 C 190.480 201.911,191.082 200.895,191.543 200.377 C 192.005 199.859,192.498 199.053,192.639 198.586 C 192.780 198.118,193.283 197.271,193.757 196.702 C 194.230 196.134,194.821 195.047,195.068 194.286 C 195.316 193.526,195.782 192.685,196.104 192.418 C 196.426 192.151,197.106 191.078,197.615 190.034 C 198.956 187.285,200.114 185.223,201.456 183.197 C 202.105 182.217,202.637 181.268,202.637 181.087 C 202.637 180.907,202.967 180.405,203.371 179.971 C 203.775 179.537,204.204 178.734,204.325 178.185 C 204.445 177.637,204.975 176.686,205.503 176.072 C 206.030 175.458,206.809 174.150,207.232 173.165 C 207.656 172.180,208.133 171.375,208.292 171.375 C 208.451 171.375,208.868 170.654,209.219 169.774 C 209.569 168.894,210.138 167.860,210.484 167.476 C 211.126 166.762,212.035 165.136,213.703 161.711 C 214.223 160.642,214.831 159.656,215.053 159.518 C 215.275 159.381,215.896 158.403,216.432 157.345 C 216.968 156.287,217.632 155.196,217.907 154.921 C 218.181 154.646,218.524 154.041,218.669 153.576 C 218.813 153.111,219.290 152.229,219.729 151.616 C 220.491 150.554,221.204 149.263,223.216 145.311 C 223.711 144.337,224.303 143.425,224.530 143.285 C 224.757 143.145,225.353 142.162,225.855 141.101 C 226.700 139.314,227.328 138.219,230.737 132.580 C 231.426 131.441,232.400 129.640,232.902 128.579 C 233.404 127.518,234.002 126.534,234.232 126.392 C 234.461 126.250,235.010 125.296,235.450 124.272 C 235.891 123.248,236.379 122.411,236.536 122.411 C 236.692 122.411,237.040 121.860,237.309 121.186 C 237.579 120.513,238.292 119.262,238.894 118.406 C 239.605 117.395,239.929 116.537,239.820 115.958 C 239.727 115.467,239.628 115.336,239.599 115.667 M202.632 120.998 C 202.222 121.671,201.899 122.561,201.914 122.976 C 201.934 123.504,202.002 123.560,202.140 123.164 C 202.248 122.853,202.656 121.963,203.046 121.186 C 203.916 119.451,203.650 119.329,202.632 120.998 M200.638 126.473 C 200.007 127.171,199.017 130.969,199.374 131.326 C 199.484 131.437,199.697 130.874,199.847 130.076 C 199.997 129.278,200.439 128.054,200.831 127.357 C 201.642 125.912,201.546 125.470,200.638 126.473 M154.125 233.566 C 155.222 233.797,156.358 234.178,156.648 234.412 C 156.963 234.667,158.349 234.801,160.094 234.746 C 162.874 234.659,163.070 234.709,164.220 235.783 C 164.990 236.502,165.826 236.911,166.526 236.911 C 167.739 236.911,169.054 238.752,168.075 239.079 C 167.818 239.164,167.608 239.819,167.608 240.533 C 167.608 242.136,166.793 244.150,165.542 245.637 C 165.021 246.256,164.595 246.980,164.595 247.246 C 164.595 247.513,164.087 248.371,163.465 249.153 C 162.844 249.935,162.335 250.737,162.335 250.935 C 162.335 251.134,161.954 251.816,161.488 252.452 C 161.022 253.088,160.301 254.239,159.887 255.010 C 158.595 257.413,156.956 260.031,156.049 261.140 C 155.571 261.726,155.174 262.404,155.168 262.647 C 155.163 262.890,154.654 263.754,154.038 264.568 C 153.423 265.382,152.919 266.259,152.919 266.517 C 152.919 266.774,152.499 267.485,151.985 268.096 C 151.471 268.706,150.732 269.950,150.341 270.861 C 149.951 271.771,149.355 272.746,149.016 273.027 C 148.677 273.308,148.399 273.691,148.399 273.878 C 148.399 274.065,147.806 275.080,147.081 276.134 C 146.356 277.188,145.763 278.280,145.763 278.560 C 145.763 278.841,145.293 279.627,144.718 280.307 C 144.144 280.988,143.384 282.180,143.030 282.957 C 142.675 283.734,142.231 284.369,142.043 284.369 C 141.855 284.369,141.436 285.033,141.111 285.844 C 139.494 289.886,138.726 287.394,139.290 279.931 C 139.536 276.675,139.847 270.876,139.981 267.043 C 140.139 262.541,140.392 259.809,140.695 259.322 C 141.017 258.803,141.297 254.762,141.594 246.333 C 141.830 239.603,142.146 233.974,142.295 233.825 C 142.445 233.676,144.091 233.497,145.954 233.427 C 147.817 233.357,149.968 233.265,150.735 233.222 C 151.501 233.180,153.027 233.334,154.125 233.566 " stroke="none" fill="#b4b4b4" fill-rule="evenodd"></path></g></svg>